<svg xmlns="http://www.w3.org/2000/svg" xmlns:xlink="http://www.w3.org/1999/xlink" width="100" height="100" viewBox="0 0 100 100"><g><g transform="translate(50 50) scale(0.69 0.69) rotate(0) translate(-50 -50)" style="fill:#000000"><svg fill="#000000" xmlns="http://www.w3.org/2000/svg" xmlns:xlink="http://www.w3.org/1999/xlink" version="1.1" x="0px" y="0px" viewBox="0 0 100 100" style="enable-background:new 0 0 100 100;" xml:space="preserve"><g><path d="M43.1,32.8c6.5,0,11.8-5.3,11.8-11.8S49.6,9.1,43.1,9.1c-6.5,0-11.8,5.3-11.8,11.8S36.6,32.8,43.1,32.8z M43.1,12.4   c4.7,0,8.5,3.8,8.5,8.5c0,4.7-3.8,8.6-8.5,8.6c-4.7,0-8.6-3.8-8.6-8.6C34.6,16.2,38.4,12.4,43.1,12.4z"></path><circle cx="70.3" cy="28.5" r="9.6"></circle><path d="M93.3,67.3l-5.9-5.8v-5.8c0-7.8-6.3-14.1-14.1-14.1h-5.9c-1.7,0-3.3,0.3-4.8,0.8l-2.2-1.9c-3.1-2.6-7.1-4.1-11.2-4.1H41   c-5.3,0-10.1,2.3-13.5,6.4l-1,1.2c-1.4-0.8-3-1.3-4.8-1.3c-5.3,0-9.6,4.3-9.6,9.6c0,2,0.6,3.8,1.6,5.4l-7,7c-2.3,2.3-2.3,6.1,0,8.4   l3.5,3.5c0.2,0.2,0.3,0.3,0.5,0.4v13.9h76.7V80.4c0.9-0.2,1.7-0.6,2.4-1.3l3.5-3.5C95.6,73.4,95.6,69.6,93.3,67.3z M53.3,87.6H32.7   V76.2c0-6.1-4.9-11-11-11c-1.2,0-2.5,0.2-3.6,0.6l-0.2,0.1l-2.3,2.3l1.5,1.5c0.6,0.6,0.6,1.6,0,2.3l-2.3,2.3   c-0.6,0.6-1.6,0.6-2.3,0l-3.5-3.5c-1-1-1-2.7,0-3.8l4.8-4.8l2.2-2.2c1.6,1.2,3.5,1.9,5.6,1.9c5.3,0,9.6-4.3,9.6-9.6   c0-2.4-0.9-4.5-2.3-6.2l1-1.2c2.7-3.3,6.7-5.2,11-5.2h8.3c3.3,0,6.6,1.2,9.1,3.3l1.2,1c-0.7,0.5-1.4,1-2,1.6c0,0,0,0,0,0   c-0.3,0.1-2,0.6-4.1,1.7c-1.1-3.9-5.2-6.1-9.1-5.1c-2,0.5-3.6,1.7-4.6,3.5c-1,1.7-1.3,3.8-0.8,5.7c0.5,2,1.7,3.6,3.5,4.6   c0.5,0.3,1,0.5,1.6,0.7c-0.2,0.7-0.4,1.5-0.4,2.3c-0.4,7.2,1.1,12.8,9.7,18.3V87.6z M50.4,49c0.2,2.1-1.1,4-3.1,4.6   c-0.6,0.2-1.2,0.2-1.8,0.1c-0.5-0.1-1-0.3-1.4-0.5c-1-0.6-1.7-1.5-2-2.6c-0.3-1.1-0.1-2.3,0.5-3.2c0.6-1,1.5-1.7,2.6-2   c0.4-0.1,0.7-0.1,1.1-0.1c1.9,0,3.6,1.3,4.1,3.2C50.4,48.6,50.4,48.8,50.4,49z M72.7,65.7c0.4,3.2-4.1,5.2-6,6.1   c-0.4,0.2-0.7,0.3-1.1,0.5c-2.6,1-5.4,1.3-8.3,0.4c-1.3-0.4-2.7-1.2-4-2.2c-3.4-2.6-6-7-4.8-11.6c0.7-2.5,2.5-4.3,4.8-4.4   c0,0,0.1,0,0.1,0c2.8-0.1,4,2,6.1,4c0.8,0.8,1.5,1.2,2.3,1.5c1.7,0.7,3.6,0.7,5.4,1C69.5,61.5,72.7,62.5,72.7,65.7   C72.7,65.7,72.7,65.7,72.7,65.7z M90.9,73.4l-3.5,3.5c0,0,0,0-0.1,0c-0.6,0.6-1.6,0.5-2.2,0l-2.3-2.3c-0.6-0.6-0.6-1.6,0-2.3   l4.5-4.5l0.3-0.3v-1.2l3.3,3.3c0.5,0.5,0.8,1.2,0.8,1.9C91.7,72.2,91.5,72.8,90.9,73.4z"></path></g></svg></g></g></svg>