<svg xmlns="http://www.w3.org/2000/svg" xmlns:xlink="http://www.w3.org/1999/xlink" width="100" height="100" viewBox="0 0 100 100"><g><g transform="translate(50 50) scale(0.69 0.69) rotate(0) translate(-50 -50)" style="fill:#000000"><svg fill="#000000" xmlns:dc="http://purl.org/dc/elements/1.1/" xmlns:cc="http://creativecommons.org/ns#" xmlns:rdf="http://www.w3.org/1999/02/22-rdf-syntax-ns#" xmlns:svg="http://www.w3.org/2000/svg" xmlns="http://www.w3.org/2000/svg" xmlns:sodipodi="http://sodipodi.sourceforge.net/DTD/sodipodi-0.dtd" xmlns:inkscape="http://www.inkscape.org/namespaces/inkscape" version="1.1" x="0px" y="0px" viewBox="0 0 100 100"><g transform="translate(0,-952.36218)"><path style="font-size:medium;font-style:normal;font-variant:normal;font-weight:normal;font-stretch:normal;text-indent:0;text-align:start;text-decoration:none;line-height:normal;letter-spacing:normal;word-spacing:normal;text-transform:none;direction:ltr;block-progression:tb;writing-mode:lr-tb;text-anchor:start;baseline-shift:baseline;opacity:1;color:#000000;fill:#000000;fill-opacity:1;stroke:none;stroke-width:4;marker:none;visibility:visible;display:inline;overflow:visible;enable-background:accumulate;font-family:Sans;-inkscape-font-specification:Sans" d="M 54 17 C 44.634848 17 37 24.63485 37 34 C 37 43.36515 44.634848 51 54 51 C 63.365152 51 71 43.36515 71 34 C 71 24.63485 63.365152 17 54 17 z M 54 21 C 61.203391 21 67 26.79661 67 34 C 67 41.20339 61.203391 47 54 47 C 46.796609 47 41 41.20339 41 34 C 41 26.79661 46.796609 21 54 21 z M 50 28 C 48.895431 28 48 28.895431 48 30 C 48 31.104569 48.895431 32 50 32 C 51.104569 32 52 31.104569 52 30 C 52 28.895431 51.104569 28 50 28 z M 58 28 C 56.895431 28 56 28.895431 56 30 C 56 31.104569 56.895431 32 58 32 C 59.104569 32 60 31.104569 60 30 C 60 28.895431 59.104569 28 58 28 z M 60.09375 35.8125 A 2.0002 2.0002 0 0 0 58.46875 36.71875 C 57.263639 38.16987 55.882255 39 54 39 C 52.117745 39 50.736361 38.16987 49.53125 36.71875 A 2.0002 2.0002 0 0 0 47.78125 35.96875 A 2.0002 2.0002 0 0 0 46.46875 39.25 C 48.229921 41.3707 50.834873 43 54 43 C 57.165127 43 59.770079 41.3707 61.53125 39.25 A 2.0002 2.0002 0 0 0 60.09375 35.8125 z M 77 51 C 74.795302 51 73.134259 52.23285 71.6875 53.46875 A 2.0002 2.0002 0 0 0 71.6875 53.5 C 68.478357 56.308 65.511274 58.27255 62.46875 59.78125 C 62.595883 59.66285 62.785777 59.59205 62.90625 59.46875 C 64.064049 58.28445 64.970706 56.78555 65 55.03125 A 2.0002 2.0002 0 0 0 63 53 L 41 53 A 2.0002 2.0002 0 0 0 40.0625 53.21875 L 19.0625 64.21875 A 2.0002 2.0002 0 0 0 18.09375 66.625 L 23.09375 81.625 A 2.0002 2.0002 0 0 0 25.71875 82.875 L 38.4375 77.96875 C 47.702429 77.94475 53.98503 77.26695 60.3125 75.96875 C 60.34208 75.95875 60.37667 75.97875 60.40625 75.96875 L 60.40625 75.9375 C 62.411232 75.6026 64.475043 74.5767 66.71875 73.1875 C 68.996854 71.7769 71.393564 69.97495 73.59375 68.03125 C 75.793936 66.08765 77.795262 64.03345 79.3125 62.03125 C 80.829738 60.02905 82 58.1841 82 56 C 82 53.2622 79.737735 51 77 51 z M 77 55 C 77.575973 55 78 55.424 78 56 C 78 56.3461 77.412814 57.89435 76.125 59.59375 C 74.837186 61.29325 72.981354 63.22575 70.9375 65.03125 C 68.893646 66.83685 66.663865 68.5501 64.625 69.8125 C 62.586135 71.0749 60.677909 71.87635 59.6875 72.03125 A 2.0002 2.0002 0 0 0 59.59375 72.03125 C 53.348242 73.31795 47.396093 74 38 74 A 2.0002 2.0002 0 0 0 37.28125 74.125 L 26.25 78.375 L 22.4375 67 L 41.53125 57 L 59.59375 57 C 58.891394 57.6245 58.017936 58.2517 56.875 58.8125 C 54.195013 60.1275 50.661632 61 48 61 A 2.0002 2.0002 0 0 0 46 63 L 46 65 A 2.0002 2.0002 0 0 0 48 67 C 58.391634 67 66.06671 63.6822 74.28125 56.5 L 74.3125 56.5 L 74.3125 56.53125 C 75.476031 55.53735 76.625498 55 77 55 z " transform="translate(0,952.36218)"></path></g></svg></g></g></svg>