<svg xmlns="http://www.w3.org/2000/svg" xmlns:xlink="http://www.w3.org/1999/xlink" width="100" height="100" viewBox="0 0 100 100"><g><g transform="translate(50 50) scale(0.69 0.69) rotate(0) translate(-50 -50)" style="fill:#000000"><svg fill="#000000" xmlns="http://www.w3.org/2000/svg" xmlns:xlink="http://www.w3.org/1999/xlink" version="1.1" x="0px" y="0px" viewBox="0 0 100 100" enable-background="new 0 0 100 100" xml:space="preserve"><path d="M61.2,86.7v2.9c0,2.3-1.7,4.2-3.9,4.5l-0.7,2.6c-0.4,1.4-1.7,2.4-3.1,2.4h-7c-1.5,0-2.8-1-3.1-2.4l-0.7-2.6  c-2.2-0.3-3.9-2.2-3.9-4.5v-2.9c0-1.5,1.2-2.8,2.8-2.8h16.9C60,84,61.2,85.2,61.2,86.7z M74.2,48c0,6.5-2.6,12.5-6.8,16.8  c-3.2,3.3-5.3,7.5-6,12.1c-0.3,1.9-2,3.4-4,3.4h-15c-2,0-3.7-1.4-4-3.4c-0.7-4.5-2.8-8.8-6-12.1c-4.1-4.3-6.7-10.1-6.8-16.5  c-0.1-13.5,10.6-24.4,24-24.5C63.3,23.7,74.2,34.6,74.2,48z M52.7,33.4c0-1.5-1.2-2.7-2.7-2.7c-9.6,0-17.5,7.8-17.5,17.5  c0,1.5,1.2,2.7,2.7,2.7s2.7-1.2,2.7-2.7c0-6.6,5.4-12,12-12C51.5,36.1,52.7,34.9,52.7,33.4z M50,15.9c1.5,0,2.7-1.2,2.7-2.7V3.6  c0-1.5-1.2-2.7-2.7-2.7s-2.7,1.2-2.7,2.7v9.6C47.3,14.7,48.5,15.9,50,15.9z M17.9,48c0-1.5-1.2-2.7-2.7-2.7H5.6  c-1.5,0-2.7,1.2-2.7,2.7c0,1.5,1.2,2.7,2.7,2.7h9.6C16.6,50.7,17.9,49.5,17.9,48z M94.4,45.3h-9.6c-1.5,0-2.7,1.2-2.7,2.7  c0,1.5,1.2,2.7,2.7,2.7h9.6c1.5,0,2.7-1.2,2.7-2.7C97.2,46.5,96,45.3,94.4,45.3z M23.4,70.7l-6.8,6.8c-1.1,1.1-1.1,2.8,0,3.9  c0.5,0.5,1.2,0.8,1.9,0.8c0.7,0,1.4-0.3,1.9-0.8l6.8-6.8c1.1-1.1,1.1-2.8,0-3.9C26.2,69.7,24.5,69.7,23.4,70.7z M74.7,26.1  c0.7,0,1.4-0.3,1.9-0.8l6.8-6.8c1.1-1.1,1.1-2.8,0-3.9c-1.1-1.1-2.8-1.1-3.9,0l-6.8,6.8c-1.1,1.1-1.1,2.8,0,3.9  C73.3,25.8,74,26.1,74.7,26.1z M23.4,25.3c0.5,0.5,1.2,0.8,1.9,0.8c0.7,0,1.4-0.3,1.9-0.8c1.1-1.1,1.1-2.8,0-3.9l-6.8-6.8  c-1.1-1.1-2.8-1.1-3.9,0c-1.1,1.1-1.1,2.8,0,3.9L23.4,25.3z M76.6,70.7c-1.1-1.1-2.8-1.1-3.9,0c-1.1,1.1-1.1,2.8,0,3.9l6.8,6.8  c0.5,0.5,1.2,0.8,1.9,0.8s1.4-0.3,1.9-0.8c1.1-1.1,1.1-2.8,0-3.9L76.6,70.7z"></path></svg></g></g></svg>