<svg xmlns="http://www.w3.org/2000/svg" xmlns:xlink="http://www.w3.org/1999/xlink" width="100" height="100" viewBox="0 0 100 100"><g><g transform="translate(50 50) scale(0.69 0.69) rotate(0) translate(-50 -50)" style="fill:#000000"><svg fill="#000000" xmlns="http://www.w3.org/2000/svg" xmlns:xlink="http://www.w3.org/1999/xlink" version="1.1" x="0px" y="0px" viewBox="10.939 32.688 491.06 447.577" style="enable-background:new 10.939 32.688 491.06 447.577;" xml:space="preserve"><g><path d="M488.779,417.524h-21.015V147.829c0-3.313-2.687-6-6-6h-16.834v-2.597c0-3.313-2.687-6-6-6h-23.033   c-2.37-10.556-6.477-20.487-12.255-29.637l16.295-16.274c1.126-1.125,1.759-2.651,1.76-4.242c0.001-1.592-0.631-3.119-1.756-4.245   l-21.12-21.131c-1.125-1.125-2.651-1.758-4.243-1.758h-0.001c-1.591,0-3.117,0.632-4.242,1.757l-16.328,16.326   c-9.084-5.749-19.14-9.93-29.535-12.282V38.688c0-3.313-2.687-6-6-6h-29.865c-3.313,0-6,2.687-6,6v23.053   c-10.482,2.349-20.391,6.466-29.565,12.286l-16.294-16.321c-1.125-1.127-2.652-1.76-4.245-1.761c0,0-0.001,0-0.001,0   c-1.592,0-3.119,0.632-4.244,1.758l-21.12,21.131c-1.125,1.126-1.757,2.653-1.756,4.245s0.634,3.118,1.76,4.243l16.295,16.273   c-5.777,9.149-9.884,19.082-12.255,29.637h-23.069c-3.313,0-6,2.687-6,6v2.597H51.173c-3.313,0-6,2.687-6,6v269.695H24.171   c-7.296,0-13.232,5.908-13.232,13.17v18.199c0,17.298,14.083,31.371,31.394,31.371h428.284c17.304,0,31.382-14.073,31.382-31.371   v-18.199C501.999,423.433,496.068,417.524,488.779,417.524z M214.113,145.232h22c2.926,0,5.425-2.11,5.915-4.995   c2.093-12.318,6.815-23.737,14.034-33.94c1.688-2.387,1.41-5.645-0.659-7.711l-15.535-15.514l12.631-12.638l15.539,15.564   c2.068,2.072,5.33,2.348,7.719,0.653c10.257-7.28,21.644-12.01,33.844-14.057c2.89-0.485,5.007-2.987,5.007-5.917v-21.99h17.865   l0.001,21.99c0,2.931,2.117,5.433,5.007,5.917c12.212,2.049,23.584,6.776,33.801,14.052c2.388,1.7,5.652,1.426,7.723-0.645   l15.573-15.571l12.634,12.641l-15.534,15.514c-2.068,2.067-2.347,5.324-0.658,7.711c7.22,10.203,11.94,21.622,14.034,33.94   c0.49,2.884,2.989,4.995,5.915,4.995h21.964v2.578c0,0.007-0.001,0.013-0.001,0.019v15.26h-21.963h-0.001   c-2.926,0-5.425,2.11-5.915,4.995c-2.09,12.298-6.81,23.695-14.03,33.875c-1.692,2.388-1.416,5.648,0.654,7.716l15.54,15.521   l-12.645,12.687l-15.567-15.565c-0.777-0.777-1.722-1.301-2.725-1.562c-1.672-0.437-3.507-0.145-4.999,0.918   c-10.116,7.204-21.497,11.933-33.825,14.056c-2.879,0.496-4.982,2.992-4.982,5.913v21.99h-17.864v-21.99   c0-2.921-2.104-5.417-4.982-5.913c-12.315-2.121-23.711-6.851-33.868-14.061c-1.194-0.847-2.606-1.202-3.979-1.086   c-1.373,0.116-2.706,0.703-3.741,1.74l-15.536,15.561l-12.666-12.686l15.565-15.518c2.076-2.07,2.353-5.338,0.652-7.727   c-7.201-10.122-11.928-21.52-14.049-33.878c-0.495-2.88-2.992-4.985-5.914-4.985h-0.001h-21.976V145.232z M57.173,153.829h144.939   v15.26c0,3.313,2.686,6,6,6h0.001h23.052c2.387,10.572,6.497,20.487,12.261,29.582l-16.316,16.267   c-1.127,1.124-1.762,2.65-1.764,4.242c-0.002,1.592,0.629,3.12,1.754,4.246l21.155,21.188c1.125,1.127,2.653,1.761,4.246,1.761   c0,0,0,0,0,0s0,0,0,0c1.593,0,3.121-0.633,4.246-1.761l16.295-16.321c9.113,5.769,19.02,9.882,29.564,12.27v23.069   c0,3.313,2.687,6,6,6h0.001h29.864h0.001c3.313,0,6-2.687,6-6v-23.068c10.55-2.39,20.449-6.501,29.536-12.268l16.325,16.322   c1.125,1.125,2.651,1.757,4.242,1.757c0,0,0.001,0,0.001,0c0.001,0,0.002,0,0.004,0c0,0,0.001,0,0.001,0   c1.593-0.001,3.12-0.636,4.244-1.764l21.12-21.188c2.338-2.345,2.334-6.141-0.009-8.481l-16.291-16.271   c5.777-9.131,9.883-19.045,12.251-29.582h23.032h0.001c3.313,0,6-2.687,6-6v-15.26h10.834v263.695H57.173V153.829z    M256.457,457.419c-4.699,0-8.522-3.824-8.522-8.524c0-4.735,3.823-8.588,8.522-8.588c4.712,0,8.546,3.853,8.546,8.588   C265.003,453.595,261.169,457.419,256.457,457.419z M22.939,448.894v-18.199c0-0.634,0.564-1.17,1.232-1.17h27.002h198.398   c-7.934,2.848-13.636,10.444-13.636,19.37c0,8.96,5.78,16.577,13.799,19.37H42.333C31.639,468.265,22.939,459.575,22.939,448.894z    M489.999,448.894c0,10.682-8.694,19.371-19.382,19.371H263.188c8.028-2.793,13.815-10.41,13.815-19.37   c0-8.926-5.709-16.522-13.652-19.37h198.414h27.015c0.649,0,1.22,0.547,1.22,1.17V448.894z"></path><path d="M323.551,218.971c35.74,0,64.817-29.09,64.817-64.846c0-35.75-29.077-64.835-64.817-64.835   c-35.753,0-64.84,29.085-64.84,64.835C258.711,189.881,287.798,218.971,323.551,218.971z M323.551,101.29   c29.124,0,52.817,23.702,52.817,52.835c0,29.14-23.693,52.846-52.817,52.846c-29.136,0-52.84-23.707-52.84-52.846   C270.711,124.992,294.415,101.29,323.551,101.29z"></path><path d="M251.656,287.44h-12.525c-1.438-5.61-3.639-10.907-6.576-15.833l8.891-8.893c2.343-2.343,2.343-6.141,0.001-8.484   l-13.149-13.155c-1.125-1.126-2.652-1.758-4.244-1.758c-0.001,0-0.003,0-0.004,0c-1.593,0.001-3.121,0.636-4.246,1.765   l-8.861,8.892c-4.931-2.933-10.218-5.131-15.804-6.57v-12.546c0-3.313-2.687-6-6-6h-18.596c-3.313,0-6,2.687-6,6v12.541   c-5.585,1.432-10.873,3.618-15.808,6.534l-8.91-8.867c-2.345-2.333-6.137-2.329-8.476,0.011l-13.149,13.155   c-2.34,2.341-2.342,6.134-0.005,8.478l8.886,8.911c-2.926,4.952-5.118,10.246-6.55,15.82h-12.538c-3.313,0-6,2.687-6,6v18.569   c0,3.313,2.687,6,6,6h12.536c1.433,5.594,3.623,10.89,6.547,15.829l-8.881,8.908c-2.338,2.344-2.335,6.139,0.006,8.479   l13.149,13.148c2.344,2.342,6.143,2.343,8.485-0.001l8.891-8.891c4.919,2.935,10.21,5.134,15.816,6.572v12.535c0,3.313,2.687,6,6,6   h18.596c3.313,0,6-2.687,6-6v-12.539c5.586-1.439,10.874-3.638,15.804-6.57l8.862,8.887c1.125,1.128,2.651,1.763,4.244,1.764   c0.001,0,0.003,0,0.004,0c1.591,0,3.117-0.632,4.243-1.757l13.149-13.148c2.343-2.344,2.343-6.143,0-8.485l-8.901-8.902   c2.944-4.953,5.146-10.25,6.583-15.829h12.528c3.313,0,6-2.687,6-6V293.44C257.656,290.127,254.97,287.44,251.656,287.44z    M245.656,306.01H234.28c-2.923,0-5.42,2.106-5.914,4.987c-1.255,7.324-4.077,14.109-8.389,20.167   c-1.699,2.387-1.426,5.65,0.645,7.722l8.096,8.098l-4.658,4.657L216,343.557c-2.075-2.081-5.348-2.353-7.737-0.646   c-6.01,4.294-12.787,7.114-20.142,8.383c-2.878,0.497-4.98,2.993-4.98,5.913v11.384h-6.596v-11.384   c0-2.922-2.104-5.419-4.984-5.913c-7.386-1.269-14.158-4.086-20.125-8.374c-2.389-1.714-5.666-1.448-7.744,0.631l-8.096,8.096   l-4.67-4.669l8.073-8.098c2.064-2.07,2.336-5.326,0.644-7.71c-4.276-6.023-7.085-12.811-8.347-20.174   c-0.493-2.881-2.991-4.986-5.914-4.986h-11.387v-6.569h11.387c2.922,0,5.42-2.105,5.914-4.986   c1.256-7.327,4.067-14.116,8.354-20.179c1.686-2.383,1.411-5.634-0.65-7.7l-8.074-8.098l4.682-4.684l8.095,8.057   c2.068,2.058,5.319,2.331,7.701,0.643c6.021-4.266,12.803-7.069,20.158-8.332c2.879-0.495,4.984-2.992,4.984-5.914v-11.39h6.597   l0,11.392c0,2.92,2.103,5.416,4.98,5.912c7.355,1.268,14.132,4.088,20.142,8.383c2.39,1.707,5.664,1.434,7.738-0.646l8.06-8.087   l4.658,4.66l-8.096,8.098c-2.078,2.077-2.345,5.354-0.632,7.741c4.291,5.978,7.109,12.755,8.376,20.144   c0.494,2.881,2.991,4.986,5.914,4.986h11.375V306.01z"></path><path d="M179.831,265.559c-20.489,0-37.158,16.676-37.158,37.174c0,20.49,16.669,37.16,37.158,37.16   c20.482,0,37.146-16.67,37.146-37.16C216.977,282.234,200.313,265.559,179.831,265.559z M179.831,327.893   c-13.872,0-25.158-11.287-25.158-25.16c0-13.881,11.286-25.174,25.158-25.174c13.866,0,25.146,11.293,25.146,25.174   C204.977,316.605,193.697,327.893,179.831,327.893z"></path></g></svg></g></g></svg>