<svg xmlns="http://www.w3.org/2000/svg" xmlns:xlink="http://www.w3.org/1999/xlink" width="100" height="100" viewBox="0 0 100 100"><g><g transform="translate(50 50) scale(0.69 0.69) rotate(0) translate(-50 -50)" style="fill:#000000"><svg fill="#000000" xmlns="http://www.w3.org/2000/svg" viewBox="0 0 64 64" x="0px" y="0px"><path d="M9.522,42h3a14.135,14.135,0,0,1,1.151-3.357A9.05,9.05,0,0,0,9.522,42Z"></path><path d="M14.191,44a23.656,23.656,0,0,0,0,6h5.618A23.1,23.1,0,0,0,20,47a23.1,23.1,0,0,0-.191-3Z"></path><path d="M17,56c.792,0,1.812-1.475,2.436-4H14.564C15.188,54.525,16.208,56,17,56Z"></path><path d="M9.522,52a9.05,9.05,0,0,0,4.155,3.357A14.135,14.135,0,0,1,12.526,52Z"></path><path d="M12,47a24.555,24.555,0,0,1,.184-3H8.525a8.834,8.834,0,0,0,0,6h3.659A24.555,24.555,0,0,1,12,47Z"></path><path d="M17,38c-.792,0-1.812,1.475-2.436,4h4.872C18.812,39.475,17.792,38,17,38Z"></path><path d="M22,32.86V24h1a1,1,0,0,0,1-1V20a1,1,0,0,0-1-1H11a1,1,0,0,0-1,1v3a1,1,0,0,0,1,1h1v8.86A15,15,0,1,0,32,47,15.106,15.106,0,0,0,22,32.86ZM17,58A11,11,0,1,1,28,47,11.013,11.013,0,0,1,17,58Z"></path><path d="M25.475,44H21.816A24.555,24.555,0,0,1,22,47a24.555,24.555,0,0,1-.184,3h3.659a8.834,8.834,0,0,0,0-6Z"></path><path d="M20.323,55.357A9.05,9.05,0,0,0,24.478,52h-3A14.135,14.135,0,0,1,20.323,55.357Z"></path><path d="M24.478,42a9.05,9.05,0,0,0-4.155-3.357A14.135,14.135,0,0,1,21.474,42Z"></path><path d="M20,12.269l23,5.519V24h2V17a1,1,0,0,0-.767-.973l-25-6A1,1,0,0,0,18,11v6h2Z"></path><path d="M49,17.48l8.573-6.858A2.963,2.963,0,0,0,59,11a3,3,0,1,0-3-3,2.969,2.969,0,0,0,.227,1.137l-8.852,7.082A1,1,0,0,0,47,17v7h2ZM59,7a1,1,0,1,1-1,1A1,1,0,0,1,59,7Z"></path><path d="M7,8a2.963,2.963,0,0,0,1.5-.416L14,11.515V17h2V11a1,1,0,0,0-.419-.813L9.8,6.056A2.969,2.969,0,0,0,10,5,3,3,0,1,0,7,8ZM7,4A1,1,0,1,1,6,5,1,1,0,0,1,7,4Z"></path><rect x="44" y="50" width="4" height="4"></rect><path d="M51,39.57V31h1a1,1,0,0,0,1-1V27a1,1,0,0,0-1-1H40a1,1,0,0,0-1,1v3a1,1,0,0,0,1,1h1v8.57l-10.58,17.9A2.994,2.994,0,0,0,33,62h25.99a3,3,0,0,0,2.59-4.53ZM52,51H50v2h2v2H50a1,1,0,0,1-1,1v2H47V56H45v2H43V56a1,1,0,0,1-1-1H40V53h2V51H40V49h2a1,1,0,0,1,1-1V46h2v2h2V46h2v2a1,1,0,0,1,1,1h2Z"></path></svg></g></g></svg>