<svg xmlns="http://www.w3.org/2000/svg" xmlns:xlink="http://www.w3.org/1999/xlink" width="100" height="100" viewBox="0 0 100 100"><g><g transform="translate(50 50) scale(0.69 0.69) rotate(0) translate(-50 -50)" style="fill:#000000"><svg fill="#000000" xmlns="http://www.w3.org/2000/svg" xmlns:xlink="http://www.w3.org/1999/xlink" version="1.1" x="0px" y="0px" viewBox="0 0 100 100" enable-background="new 0 0 100 100" xml:space="preserve"><path fill-rule="evenodd" clip-rule="evenodd" d="M59.8514214,67.3369141  C79.1420135,70.0997772,84.1495361,81.4344864,84.1495361,95H15.8504677c0-13.5655136,5.0073776-24.9004364,24.298111-27.6630859  c2.1505661,3.4740982,5.3069229,5.5292435,9.8515968,5.5292435C54.5447121,72.8661575,57.7010651,70.8110123,59.8514214,67.3369141z  "></path><path fill-rule="evenodd" clip-rule="evenodd" d="M65.4641418,29.0308895  c3.484642,3.7601528,5.6156693,8.7926159,5.6156693,14.3234081c0,11.6420479-9.4377251,21.0797768-21.0797768,21.0797768  s-21.0797787-9.4377289-21.0797787-21.0797768c0-5.5307922,2.1309624-10.5632553,5.6156712-14.3234081  c4.4819298,0.5776577,9.7824554,0.9116325,15.4641075,0.9116325C55.6816177,29.942522,60.9821434,29.6085472,65.4641418,29.0308895z  "></path><path fill-rule="evenodd" clip-rule="evenodd" d="M65.4661102,21.2390041v5.1389866  c-4.4823494,0.5776577-9.7837219,0.9118423-15.4660759,0.9118423c-5.6824226,0-10.9835854-0.3341846-15.4659348-0.9118423  v-5.1389866l10.7981529,2.497118c3.2167168,0.7439079,6.1187782,0.7439079,9.335495,0L65.4661102,21.2390041z"></path><path fill-rule="evenodd" clip-rule="evenodd" d="M15.2780094,12.5083618l30.0542431-6.9503779  c3.2167168-0.7439785,6.1187782-0.7439785,9.335495,0l30.054245,6.9503779  c0.4579239,0.1059608,0.772995,0.5021219,0.772995,0.9722023c0,0.4700108-0.3150711,0.8662415-0.772995,0.9722033  l-6.2120209,1.4366617v12.4073181l3.3470535,5.797102c0.4654465,0.8039131,0.1912003,1.8334541-0.6127167,2.2988968  c-0.8038483,0.4655113-1.8334579,0.1912651-2.2988968-0.6126518l-0.4354401-0.754097v0.8694038  c0,0.9313774-0.7550812,1.6864586-1.6864624,1.6864586c-0.9313049,0-1.6864548-0.7550812-1.6864548-1.6864586v-0.8698235  l-0.4353714,0.754097c-0.4655151,0.8039131-1.4950485,1.0781631-2.2989655,0.6127205  c-0.8038483-0.4655151-1.0781631-1.4950523-0.6126556-2.2989693l3.3469925-5.7971001V16.669384l-20.4693069,4.7337608  c-3.2167168,0.7439079-6.1187782,0.7439079-9.335495,0l-30.0542431-6.9503775  c-0.4579248-0.1059618-0.7729988-0.5021925-0.7729988-0.9722033C14.5050106,13.0104837,14.8198738,12.6143227,15.2780094,12.5083618  z"></path></svg></g></g></svg>