<?xml version="1.0" encoding="utf-8"?>
<!-- Generator: Adobe Illustrator 22.0.1, SVG Export Plug-In . SVG Version: 6.00 Build 0)  -->
<svg version="1.1" id="Layer_1" xmlns="http://www.w3.org/2000/svg" xmlns:xlink="http://www.w3.org/1999/xlink" x="0px" y="0px"
	 viewBox="0 0 100 100" style="enable-background:new 0 0 100 100;" xml:space="preserve">
<g>
	<g transform="translate(50 50) scale(0.69 0.69) rotate(0) translate(-50 -50)">
		<g>
			<path d="M38.1,11.2C38.1,5,43.1,0,49.2,0s11.1,5,11.1,11.2s-5,11.2-11.1,11.2S38.1,17.3,38.1,11.2z M72.5,67.5h-2.4v-1.9
				c1.4-0.6,2.4-2,2.4-3.6l0.4-13.4c0-0.5-5.6-18.2-5.6-18.2c-0.3-1-1-1.8-1.8-2.3c-2.4-1.5-7.3-3.4-12.5-3.8h-4l0,0l-3.4,0
				c-5.2,0.4-10.1,2.3-12.5,3.8c-0.8,0.5-1.5,1.3-1.8,2.3c0,0-5.6,17.7-5.6,18.2L26,62c0.1,2.2,1.9,4,4.1,4c0,0,0.1,0,0.1,0
				c2.3-0.1,4.1-1.9,4-4.2l-0.4-12.7l3.4-10.5c0.8,0,1,1,1,1.8l0,54.6c0,2.8,2.3,5,5.1,5c2.8,0,5.1-2.2,5.1-5V65.8h1.8V95
				c0,2.8,2.3,5,5.1,5c2.8,0,5.1-2.2,5.1-5l0-54.6c0-0.8,0.2-1.8,1-1.8c0,0,3.4,10.6,3.4,10.6l-0.4,12.7c0,1.8,1,3.3,2.6,3.9v1.8
				h-2.4c-1.1,0-2,0.9-2,2v21.3c0,1.1,0.9,2,2,2h7.9c1.1,0,2-0.9,2-2V69.4C74.4,68.4,73.6,67.5,72.5,67.5z"/>
		</g>
	</g>
</g>
</svg>
