<?xml version="1.0" encoding="utf-8"?>
<!-- Generator: Adobe Illustrator 22.0.1, SVG Export Plug-In . SVG Version: 6.00 Build 0)  -->
<svg version="1.1" id="Layer_1" xmlns="http://www.w3.org/2000/svg" xmlns:xlink="http://www.w3.org/1999/xlink" x="0px" y="0px"
	 viewBox="0 0 100 100" style="enable-background:new 0 0 100 100;" xml:space="preserve">
<g>
	<g transform="translate(50 50) scale(0.69 0.69) rotate(0) translate(-50 -50)">
		<g>
			<path d="M61,63v24H27.6V59.1c-2.9,3.2-5.2,7.1-9.1,5.2L3.6,56.8c-4.9-2.6-1-10.1,3.9-7.8l12,6.5c4.9-5.5,10.4-13.6,17.2-15.6
				l6.8-1.9c0,0-1.6,0,0,0h1.6c1.6,0,6.8,1.9,6.8,1.9C61,42.9,65.6,54.2,70.5,62l13.3-2.6c5.5-1,7.1,7.1,1.6,8.1l-16.2,3.2
				c-1.6,0.3-3.2-0.3-4.2-1.9L61,63z M44.5,12c6.2,0,11.4,5.2,11.4,11.7c0,6.2-5.2,11.4-11.4,11.4c-6.5,0-11.7-5.2-11.7-11.4
				C32.8,17.2,38,12,44.5,12z M80.2,48.1v6.8h-5.8V43.2L80.2,48.1z M87.3,45.1v9.7c-1.9,0-3.9,0-5.8,0v-5.5l1.6,1.3L87.3,45.1z
				 M100,30.5L96.4,39l-1.9-3.2l-4.9,2.9l-6.8,8.8L72.7,39l2.6-2.9l6.8,5.8l5.2-6.2l5.2-3.2l-1.9-3.2L100,30.5z M94.5,40.3v14.6
				h-5.8V43.2l2.3-2.9l2.6-1.3L94.5,40.3z M5.5,44.2v-2.6C2.6,41.2,0,39,0,35.7h2.9c0,1.9,2.3,2.9,3.9,2.9c5.2,0,5.2-5.8,0-5.8
				c-8.1,0-9.4-10.4-1.3-12v-2.6h2.9v2.6c2.9,0.3,5.5,2.6,5.5,5.8h-3.2c0-1.9-1.9-2.9-3.9-2.9c-5.2,0-4.9,5.8,0,5.8
				c8.1,0,9.7,10.4,1.6,12v2.6H5.5z"/>
		</g>
	</g>
</g>
</svg>
