<svg xmlns="http://www.w3.org/2000/svg" xmlns:xlink="http://www.w3.org/1999/xlink" width="100" height="100" viewBox="0 0 100 100"><g><g transform="translate(50 50) scale(0.69 0.69) rotate(0) translate(-50 -50)" style="fill:#000000"><svg fill="#000000" xmlns="http://www.w3.org/2000/svg" xmlns:xlink="http://www.w3.org/1999/xlink" viewBox="0 0 97.2 83" x="0px" y="0px"><defs><clipPath id="a"><path d="M90,51.53a6.8,6.8,0,0,0-2.06-5.14,18.24,18.24,0,0,0-8.29-4.62,8.29,8.29,0,0,0,.58-.95,14.59,14.59,0,0,0,2.43-6.58,10.08,10.08,0,0,0-9.92-11.42h-.06A10,10,0,0,0,63,30.23a13.36,13.36,0,0,0,2.85,11.5,17.88,17.88,0,0,0-8.66,4.92,5.85,5.85,0,0,0-1.71,3.51c-.1,1.54-.08,3.07-.07,4.55,0,.56,0,1.13,0,1.7v2.76H90V56.42c0-.52,0-1,0-1.56C90,53.71,90,52.61,90,51.53Z" fill="none"></path></clipPath></defs><title>multicultural</title><g data-name="Layer 2"><g data-name="Layer 29"><path d="M34.59,51.53a6.8,6.8,0,0,0-2.06-5.14,18.31,18.31,0,0,0-8.41-4.66,14.12,14.12,0,0,0,3.13-7.49,10.08,10.08,0,0,0-9.92-11.42h-.06A10,10,0,0,0,7.6,30.23a13.36,13.36,0,0,0,2.85,11.5,17.88,17.88,0,0,0-8.66,4.92A5.85,5.85,0,0,0,.08,50.16C0,51.7,0,53.23,0,54.71c0,.56,0,1.13,0,1.7v2.76H34.58V56.42c0-.52,0-1,0-1.56C34.57,53.71,34.56,52.61,34.59,51.53ZM10.27,30.94a7.3,7.3,0,0,1,7-5.36h0a7.32,7.32,0,0,1,7.2,8.3,10.45,10.45,0,0,1-4.27,7.68,5.09,5.09,0,0,1-2.93,1,5.29,5.29,0,0,1-2.84-.9A10.6,10.6,0,0,1,10.27,30.94ZM31.82,56.42h-29c0-2.07-.08-4.08,0-6.08a3.42,3.42,0,0,1,1-1.83,15.33,15.33,0,0,1,7.76-4.23l.17,0a1.84,1.84,0,0,1,.85.29A9,9,0,0,0,17.27,46a9,9,0,0,0,4.66-1.4,1.92,1.92,0,0,1,.91-.28.84.84,0,0,1,.22,0,16,16,0,0,1,7.51,4,4.07,4.07,0,0,1,1.27,3.11C31.78,53.07,31.82,54.71,31.82,56.42Z"></path><path d="M55.42,54.71c0-1.48,0-3,.07-4.55a5.85,5.85,0,0,1,1.71-3.51,14.42,14.42,0,0,1,1.54-1.45,19.61,19.61,0,0,0-7.07-3.46,14.12,14.12,0,0,0,3.13-7.49,10.08,10.08,0,0,0-9.92-11.42h-.06a10,10,0,0,0-9.67,7.41A13.36,13.36,0,0,0,38,41.73a17.88,17.88,0,0,0-8.66,4.92,5.85,5.85,0,0,0-1.71,3.51c-.1,1.54-.08,3.07-.07,4.55,0,.56,0,1.13,0,1.7v2.76H55.43V56.42C55.43,55.85,55.42,55.28,55.42,54.71Z"></path><g clip-path="url(#a)"><circle cx="72.7" cy="0.5" r="0.5"></circle><circle cx="72.7" cy="2.5" r="0.5"></circle><circle cx="72.7" cy="4.5" r="0.5"></circle><circle cx="72.7" cy="6.5" r="0.5"></circle><circle cx="72.7" cy="8.5" r="0.5"></circle><circle cx="72.7" cy="10.5" r="0.5"></circle><circle cx="72.7" cy="12.5" r="0.5"></circle><circle cx="72.7" cy="14.5" r="0.5"></circle><circle cx="72.7" cy="16.5" r="0.5"></circle><circle cx="72.7" cy="18.5" r="0.5"></circle><circle cx="72.7" cy="20.5" r="0.5"></circle><circle cx="72.7" cy="22.5" r="0.5"></circle><circle cx="72.7" cy="24.5" r="0.5"></circle><circle cx="72.7" cy="26.5" r="0.5"></circle><circle cx="72.7" cy="28.5" r="0.5"></circle><circle cx="72.7" cy="30.5" r="0.5"></circle><circle cx="72.7" cy="32.5" r="0.5"></circle><circle cx="72.7" cy="34.5" r="0.5"></circle><circle cx="72.7" cy="36.5" r="0.5"></circle><circle cx="72.7" cy="38.5" r="0.5"></circle><circle cx="72.7" cy="40.5" r="0.5"></circle><circle cx="70.7" cy="0.5" r="0.5"></circle><circle cx="70.7" cy="2.5" r="0.5"></circle><circle cx="70.7" cy="4.5" r="0.5"></circle><circle cx="70.7" cy="6.5" r="0.5"></circle><circle cx="70.7" cy="8.5" r="0.5"></circle><circle cx="70.7" cy="10.5" r="0.5"></circle><circle cx="70.7" cy="12.5" r="0.5"></circle><circle cx="70.7" cy="14.5" r="0.5"></circle><circle cx="70.7" cy="16.5" r="0.5"></circle><circle cx="70.7" cy="18.5" r="0.5"></circle><circle cx="70.7" cy="20.5" r="0.5"></circle><circle cx="70.7" cy="22.5" r="0.5"></circle><circle cx="70.7" cy="24.5" r="0.5"></circle><circle cx="70.7" cy="26.5" r="0.5"></circle><circle cx="70.7" cy="28.5" r="0.5"></circle><circle cx="70.7" cy="30.5" r="0.5"></circle><circle cx="70.7" cy="32.5" r="0.5"></circle><circle cx="70.7" cy="34.5" r="0.5"></circle><circle cx="70.7" cy="36.5" r="0.5"></circle><circle cx="70.7" cy="38.5" r="0.5"></circle><circle cx="70.7" cy="40.5" r="0.5"></circle><circle cx="68.7" cy="0.5" r="0.5"></circle><circle cx="68.7" cy="2.5" r="0.5"></circle><circle cx="68.7" cy="4.5" r="0.5"></circle><circle cx="68.7" cy="6.5" r="0.5"></circle><circle cx="68.7" cy="8.5" r="0.5"></circle><circle cx="68.7" cy="10.5" r="0.5"></circle><circle cx="68.7" cy="12.5" r="0.5"></circle><circle cx="68.7" cy="14.5" r="0.5"></circle><circle cx="68.7" cy="16.5" r="0.5"></circle><circle cx="68.7" cy="18.5" r="0.5"></circle><circle cx="68.7" cy="20.5" r="0.5"></circle><circle cx="68.7" cy="22.5" r="0.5"></circle><circle cx="68.7" cy="24.5" r="0.5"></circle><circle cx="68.7" cy="26.5" r="0.5"></circle><circle cx="68.7" cy="28.5" r="0.5"></circle><circle cx="68.7" cy="30.5" r="0.5"></circle><circle cx="68.7" cy="32.5" r="0.5"></circle><circle cx="68.7" cy="34.5" r="0.5"></circle><circle cx="68.7" cy="36.5" r="0.5"></circle><circle cx="68.7" cy="38.5" r="0.5"></circle><circle cx="68.7" cy="40.5" r="0.5"></circle><circle cx="66.7" cy="0.5" r="0.5"></circle><circle cx="66.7" cy="2.5" r="0.5"></circle><circle cx="66.7" cy="4.5" r="0.5"></circle><circle cx="66.7" cy="6.5" r="0.5"></circle><circle cx="66.7" cy="8.5" r="0.5"></circle><circle cx="66.7" cy="10.5" r="0.5"></circle><circle cx="66.7" cy="12.5" r="0.5"></circle><circle cx="66.7" cy="14.5" r="0.5"></circle><circle cx="66.7" cy="16.5" r="0.5"></circle><circle cx="66.7" cy="18.5" r="0.5"></circle><circle cx="66.7" cy="20.5" r="0.5"></circle><circle cx="66.7" cy="22.5" r="0.5"></circle><circle cx="66.7" cy="24.5" r="0.5"></circle><circle cx="66.7" cy="26.5" r="0.5"></circle><circle cx="66.7" cy="28.5" r="0.5"></circle><circle cx="66.7" cy="30.5" r="0.5"></circle><circle cx="66.7" cy="32.5" r="0.5"></circle><circle cx="66.7" cy="34.5" r="0.5"></circle><circle cx="66.7" cy="36.5" r="0.5"></circle><circle cx="66.7" cy="38.5" r="0.5"></circle><circle cx="66.7" cy="40.5" r="0.5"></circle><circle cx="64.7" cy="0.5" r="0.5"></circle><circle cx="64.7" cy="2.5" r="0.5"></circle><circle cx="64.7" cy="4.5" r="0.5"></circle><circle cx="64.7" cy="6.5" r="0.5"></circle><circle cx="64.7" cy="8.5" r="0.5"></circle><circle cx="64.7" cy="10.5" r="0.5"></circle><circle cx="64.7" cy="12.5" r="0.5"></circle><circle cx="64.7" cy="14.5" r="0.5"></circle><circle cx="64.7" cy="16.5" r="0.5"></circle><circle cx="64.7" cy="18.5" r="0.5"></circle><circle cx="64.7" cy="20.5" r="0.5"></circle><circle cx="64.7" cy="22.5" r="0.5"></circle><circle cx="64.7" cy="24.5" r="0.5"></circle><circle cx="64.7" cy="26.5" r="0.5"></circle><circle cx="64.7" cy="28.5" r="0.5"></circle><circle cx="64.7" cy="30.5" r="0.5"></circle><circle cx="64.7" cy="32.5" r="0.5"></circle><circle cx="64.7" cy="34.5" r="0.5"></circle><circle cx="64.7" cy="36.5" r="0.5"></circle><circle cx="64.7" cy="38.5" r="0.5"></circle><circle cx="64.7" cy="40.5" r="0.5"></circle><circle cx="62.7" cy="0.5" r="0.5"></circle><circle cx="62.7" cy="2.5" r="0.5"></circle><circle cx="62.7" cy="4.5" r="0.5"></circle><circle cx="62.7" cy="6.5" r="0.5"></circle><circle cx="62.7" cy="8.5" r="0.5"></circle><circle cx="62.7" cy="10.5" r="0.5"></circle><circle cx="62.7" cy="12.5" r="0.5"></circle><circle cx="62.7" cy="14.5" r="0.5"></circle><circle cx="62.7" cy="16.5" r="0.5"></circle><circle cx="62.7" cy="18.5" r="0.5"></circle><circle cx="62.7" cy="20.5" r="0.5"></circle><circle cx="62.7" cy="22.5" r="0.5"></circle><circle cx="62.7" cy="24.5" r="0.5"></circle><circle cx="62.7" cy="26.5" r="0.5"></circle><circle cx="62.7" cy="28.5" r="0.5"></circle><circle cx="62.7" cy="30.5" r="0.5"></circle><circle cx="62.7" cy="32.5" r="0.5"></circle><circle cx="62.7" cy="34.5" r="0.5"></circle><circle cx="62.7" cy="36.5" r="0.5"></circle><circle cx="62.7" cy="38.5" r="0.5"></circle><circle cx="62.7" cy="40.5" r="0.5"></circle><circle cx="60.7" cy="0.5" r="0.5"></circle><circle cx="60.7" cy="2.5" r="0.5"></circle><circle cx="60.7" cy="4.5" r="0.5"></circle><circle cx="60.7" cy="6.5" r="0.5"></circle><circle cx="60.7" cy="8.5" r="0.5"></circle><circle cx="60.7" cy="10.5" r="0.5"></circle><circle cx="60.7" cy="12.5" r="0.5"></circle><circle cx="60.7" cy="14.5" r="0.5"></circle><circle cx="60.7" cy="16.5" r="0.5"></circle><circle cx="60.7" cy="18.5" r="0.5"></circle><circle cx="60.7" cy="20.5" r="0.5"></circle><circle cx="60.7" cy="22.5" r="0.5"></circle><circle cx="60.7" cy="24.5" r="0.5"></circle><circle cx="60.7" cy="26.5" r="0.5"></circle><circle cx="60.7" cy="28.5" r="0.5"></circle><circle cx="60.7" cy="30.5" r="0.5"></circle><circle cx="60.7" cy="32.5" r="0.5"></circle><circle cx="60.7" cy="34.5" r="0.5"></circle><circle cx="60.7" cy="36.5" r="0.5"></circle><circle cx="60.7" cy="38.5" r="0.5"></circle><circle cx="60.7" cy="40.5" r="0.5"></circle><circle cx="58.7" cy="0.5" r="0.5"></circle><circle cx="58.7" cy="2.5" r="0.5"></circle><circle cx="58.7" cy="4.5" r="0.5"></circle><circle cx="58.7" cy="6.5" r="0.5"></circle><circle cx="58.7" cy="8.5" r="0.5"></circle><circle cx="58.7" cy="10.5" r="0.5"></circle><circle cx="58.7" cy="12.5" r="0.5"></circle><circle cx="58.7" cy="14.5" r="0.5"></circle><circle cx="58.7" cy="16.5" r="0.5"></circle><circle cx="58.7" cy="18.5" r="0.5"></circle><circle cx="58.7" cy="20.5" r="0.5"></circle><circle cx="58.7" cy="22.5" r="0.5"></circle><circle cx="58.7" cy="24.5" r="0.5"></circle><circle cx="58.7" cy="26.5" r="0.5"></circle><circle cx="58.7" cy="28.5" r="0.5"></circle><circle cx="58.7" cy="30.5" r="0.5"></circle><circle cx="58.7" cy="32.5" r="0.5"></circle><circle cx="58.7" cy="34.5" r="0.5"></circle><circle cx="58.7" cy="36.5" r="0.5"></circle><circle cx="58.7" cy="38.5" r="0.5"></circle><circle cx="58.7" cy="40.5" r="0.5"></circle><circle cx="56.7" cy="0.5" r="0.5"></circle><circle cx="56.7" cy="2.5" r="0.5"></circle><circle cx="56.7" cy="4.5" r="0.5"></circle><circle cx="56.7" cy="6.5" r="0.5"></circle><circle cx="56.7" cy="8.5" r="0.5"></circle><circle cx="56.7" cy="10.5" r="0.5"></circle><circle cx="56.7" cy="12.5" r="0.5"></circle><circle cx="56.7" cy="14.5" r="0.5"></circle><circle cx="56.7" cy="16.5" r="0.5"></circle><circle cx="56.7" cy="18.5" r="0.5"></circle><circle cx="56.7" cy="20.5" r="0.5"></circle><circle cx="56.7" cy="22.5" r="0.5"></circle><circle cx="56.7" cy="24.5" r="0.5"></circle><circle cx="56.7" cy="26.5" r="0.5"></circle><circle cx="56.7" cy="28.5" r="0.5"></circle><circle cx="56.7" cy="30.5" r="0.5"></circle><circle cx="56.7" cy="32.5" r="0.5"></circle><circle cx="56.7" cy="34.5" r="0.5"></circle><circle cx="56.7" cy="36.5" r="0.5"></circle><circle cx="56.7" cy="38.5" r="0.5"></circle><circle cx="56.7" cy="40.5" r="0.5"></circle><circle cx="54.7" cy="0.5" r="0.5"></circle><circle cx="54.7" cy="2.5" r="0.5"></circle><circle cx="54.7" cy="4.5" r="0.5"></circle><circle cx="54.7" cy="6.5" r="0.5"></circle><circle cx="54.7" cy="8.5" r="0.5"></circle><circle cx="54.7" cy="10.5" r="0.5"></circle><circle cx="54.7" cy="12.5" r="0.5"></circle><circle cx="54.7" cy="14.5" r="0.5"></circle><circle cx="54.7" cy="16.5" r="0.5"></circle><circle cx="54.7" cy="18.5" r="0.5"></circle><circle cx="54.7" cy="20.5" r="0.5"></circle><circle cx="54.7" cy="22.5" r="0.5"></circle><circle cx="54.7" cy="24.5" r="0.5"></circle><circle cx="54.7" cy="26.5" r="0.5"></circle><circle cx="54.7" cy="28.5" r="0.5"></circle><circle cx="54.7" cy="30.5" r="0.5"></circle><circle cx="54.7" cy="32.5" r="0.5"></circle><circle cx="54.7" cy="34.5" r="0.5"></circle><circle cx="54.7" cy="36.5" r="0.5"></circle><circle cx="54.7" cy="38.5" r="0.5"></circle><circle cx="54.7" cy="40.5" r="0.5"></circle><circle cx="52.7" cy="0.5" r="0.5"></circle><circle cx="52.7" cy="2.5" r="0.5"></circle><circle cx="52.7" cy="4.5" r="0.5"></circle><circle cx="52.7" cy="6.5" r="0.5"></circle><circle cx="52.7" cy="8.5" r="0.5"></circle><circle cx="52.7" cy="10.5" r="0.5"></circle><circle cx="52.7" cy="12.5" r="0.5"></circle><circle cx="52.7" cy="14.5" r="0.5"></circle><circle cx="52.7" cy="16.5" r="0.5"></circle><circle cx="52.7" cy="18.5" r="0.5"></circle><circle cx="52.7" cy="20.5" r="0.5"></circle><circle cx="52.7" cy="22.5" r="0.5"></circle><circle cx="52.7" cy="24.5" r="0.5"></circle><circle cx="52.7" cy="26.5" r="0.5"></circle><circle cx="52.7" cy="28.5" r="0.5"></circle><circle cx="52.7" cy="30.5" r="0.5"></circle><circle cx="52.7" cy="32.5" r="0.5"></circle><circle cx="52.7" cy="34.5" r="0.5"></circle><circle cx="52.7" cy="36.5" r="0.5"></circle><circle cx="52.7" cy="38.5" r="0.5"></circle><circle cx="52.7" cy="40.5" r="0.5"></circle><circle cx="72.7" cy="42.5" r="0.5"></circle><circle cx="72.7" cy="44.5" r="0.5"></circle><circle cx="72.7" cy="46.5" r="0.5"></circle><circle cx="72.7" cy="48.5" r="0.5"></circle><circle cx="72.7" cy="50.5" r="0.5"></circle><circle cx="72.7" cy="52.5" r="0.5"></circle><circle cx="72.7" cy="54.5" r="0.5"></circle><circle cx="72.7" cy="56.5" r="0.5"></circle><circle cx="72.7" cy="58.5" r="0.5"></circle><circle cx="72.7" cy="60.5" r="0.5"></circle><circle cx="72.7" cy="62.5" r="0.5"></circle><circle cx="72.7" cy="64.5" r="0.5"></circle><circle cx="72.7" cy="66.5" r="0.5"></circle><circle cx="72.7" cy="68.5" r="0.5"></circle><circle cx="72.7" cy="70.5" r="0.5"></circle><circle cx="72.7" cy="72.5" r="0.5"></circle><circle cx="72.7" cy="74.5" r="0.5"></circle><circle cx="72.7" cy="76.5" r="0.5"></circle><circle cx="72.7" cy="78.5" r="0.5"></circle><circle cx="72.7" cy="80.5" r="0.5"></circle><circle cx="72.7" cy="82.5" r="0.5"></circle><circle cx="70.7" cy="42.5" r="0.5"></circle><circle cx="70.7" cy="44.5" r="0.5"></circle><circle cx="70.7" cy="46.5" r="0.5"></circle><circle cx="70.7" cy="48.5" r="0.5"></circle><circle cx="70.7" cy="50.5" r="0.5"></circle><circle cx="70.7" cy="52.5" r="0.5"></circle><circle cx="70.7" cy="54.5" r="0.5"></circle><circle cx="70.7" cy="56.5" r="0.5"></circle><circle cx="70.7" cy="58.5" r="0.5"></circle><circle cx="70.7" cy="60.5" r="0.5"></circle><circle cx="70.7" cy="62.5" r="0.5"></circle><circle cx="70.7" cy="64.5" r="0.5"></circle><circle cx="70.7" cy="66.5" r="0.5"></circle><circle cx="70.7" cy="68.5" r="0.5"></circle><circle cx="70.7" cy="70.5" r="0.5"></circle><circle cx="70.7" cy="72.5" r="0.5"></circle><circle cx="70.7" cy="74.5" r="0.5"></circle><circle cx="70.7" cy="76.5" r="0.5"></circle><circle cx="70.7" cy="78.5" r="0.5"></circle><circle cx="70.7" cy="80.5" r="0.5"></circle><circle cx="70.7" cy="82.5" r="0.5"></circle><circle cx="68.7" cy="42.5" r="0.5"></circle><circle cx="68.7" cy="44.5" r="0.5"></circle><circle cx="68.7" cy="46.5" r="0.5"></circle><circle cx="68.7" cy="48.5" r="0.5"></circle><circle cx="68.7" cy="50.5" r="0.5"></circle><circle cx="68.7" cy="52.5" r="0.5"></circle><circle cx="68.7" cy="54.5" r="0.5"></circle><circle cx="68.7" cy="56.5" r="0.5"></circle><circle cx="68.7" cy="58.5" r="0.5"></circle><circle cx="68.7" cy="60.5" r="0.5"></circle><circle cx="68.7" cy="62.5" r="0.5"></circle><circle cx="68.7" cy="64.5" r="0.5"></circle><circle cx="68.7" cy="66.5" r="0.5"></circle><circle cx="68.7" cy="68.5" r="0.5"></circle><circle cx="68.7" cy="70.5" r="0.5"></circle><circle cx="68.7" cy="72.5" r="0.5"></circle><circle cx="68.7" cy="74.5" r="0.5"></circle><circle cx="68.7" cy="76.5" r="0.5"></circle><circle cx="68.7" cy="78.5" r="0.5"></circle><circle cx="68.7" cy="80.5" r="0.5"></circle><circle cx="68.7" cy="82.5" r="0.5"></circle><circle cx="66.7" cy="42.5" r="0.5"></circle><circle cx="66.7" cy="44.5" r="0.5"></circle><circle cx="66.7" cy="46.5" r="0.5"></circle><circle cx="66.7" cy="48.5" r="0.5"></circle><circle cx="66.7" cy="50.5" r="0.5"></circle><circle cx="66.7" cy="52.5" r="0.5"></circle><circle cx="66.7" cy="54.5" r="0.5"></circle><circle cx="66.7" cy="56.5" r="0.5"></circle><circle cx="66.7" cy="58.5" r="0.5"></circle><circle cx="66.7" cy="60.5" r="0.5"></circle><circle cx="66.7" cy="62.5" r="0.5"></circle><circle cx="66.7" cy="64.5" r="0.5"></circle><circle cx="66.7" cy="66.5" r="0.5"></circle><circle cx="66.7" cy="68.5" r="0.5"></circle><circle cx="66.7" cy="70.5" r="0.5"></circle><circle cx="66.7" cy="72.5" r="0.5"></circle><circle cx="66.7" cy="74.5" r="0.5"></circle><circle cx="66.7" cy="76.5" r="0.5"></circle><circle cx="66.7" cy="78.5" r="0.5"></circle><circle cx="66.7" cy="80.5" r="0.5"></circle><circle cx="66.7" cy="82.5" r="0.5"></circle><circle cx="64.7" cy="42.5" r="0.5"></circle><circle cx="64.7" cy="44.5" r="0.5"></circle><circle cx="64.7" cy="46.5" r="0.5"></circle><circle cx="64.7" cy="48.5" r="0.5"></circle><circle cx="64.7" cy="50.5" r="0.5"></circle><circle cx="64.7" cy="52.5" r="0.5"></circle><circle cx="64.7" cy="54.5" r="0.5"></circle><circle cx="64.7" cy="56.5" r="0.5"></circle><circle cx="64.7" cy="58.5" r="0.5"></circle><circle cx="64.7" cy="60.5" r="0.5"></circle><circle cx="64.7" cy="62.5" r="0.5"></circle><circle cx="64.7" cy="64.5" r="0.5"></circle><circle cx="64.7" cy="66.5" r="0.5"></circle><circle cx="64.7" cy="68.5" r="0.5"></circle><circle cx="64.7" cy="70.5" r="0.5"></circle><circle cx="64.7" cy="72.5" r="0.5"></circle><circle cx="64.7" cy="74.5" r="0.5"></circle><circle cx="64.7" cy="76.5" r="0.5"></circle><circle cx="64.7" cy="78.5" r="0.5"></circle><circle cx="64.7" cy="80.5" r="0.5"></circle><circle cx="64.7" cy="82.5" r="0.5"></circle><circle cx="62.7" cy="42.5" r="0.5"></circle><circle cx="62.7" cy="44.5" r="0.5"></circle><circle cx="62.7" cy="46.5" r="0.5"></circle><circle cx="62.7" cy="48.5" r="0.5"></circle><circle cx="62.7" cy="50.5" r="0.5"></circle><circle cx="62.7" cy="52.5" r="0.5"></circle><circle cx="62.7" cy="54.5" r="0.5"></circle><circle cx="62.7" cy="56.5" r="0.5"></circle><circle cx="62.7" cy="58.5" r="0.5"></circle><circle cx="62.7" cy="60.5" r="0.5"></circle><circle cx="62.7" cy="62.5" r="0.5"></circle><circle cx="62.7" cy="64.5" r="0.5"></circle><circle cx="62.7" cy="66.5" r="0.5"></circle><circle cx="62.7" cy="68.5" r="0.5"></circle><circle cx="62.7" cy="70.5" r="0.5"></circle><circle cx="62.7" cy="72.5" r="0.5"></circle><circle cx="62.7" cy="74.5" r="0.5"></circle><circle cx="62.7" cy="76.5" r="0.5"></circle><circle cx="62.7" cy="78.5" r="0.5"></circle><circle cx="62.7" cy="80.5" r="0.5"></circle><circle cx="62.7" cy="82.5" r="0.5"></circle><circle cx="60.7" cy="42.5" r="0.5"></circle><circle cx="60.7" cy="44.5" r="0.5"></circle><circle cx="60.7" cy="46.5" r="0.5"></circle><circle cx="60.7" cy="48.5" r="0.5"></circle><circle cx="60.7" cy="50.5" r="0.5"></circle><circle cx="60.7" cy="52.5" r="0.5"></circle><circle cx="60.7" cy="54.5" r="0.5"></circle><circle cx="60.7" cy="56.5" r="0.5"></circle><circle cx="60.7" cy="58.5" r="0.5"></circle><circle cx="60.7" cy="60.5" r="0.5"></circle><circle cx="60.7" cy="62.5" r="0.5"></circle><circle cx="60.7" cy="64.5" r="0.5"></circle><circle cx="60.7" cy="66.5" r="0.5"></circle><circle cx="60.7" cy="68.5" r="0.5"></circle><circle cx="60.7" cy="70.5" r="0.5"></circle><circle cx="60.7" cy="72.5" r="0.5"></circle><circle cx="60.7" cy="74.5" r="0.5"></circle><circle cx="60.7" cy="76.5" r="0.5"></circle><circle cx="60.7" cy="78.5" r="0.5"></circle><circle cx="60.7" cy="80.5" r="0.5"></circle><circle cx="60.7" cy="82.5" r="0.5"></circle><circle cx="58.7" cy="42.5" r="0.5"></circle><circle cx="58.7" cy="44.5" r="0.5"></circle><circle cx="58.7" cy="46.5" r="0.5"></circle><circle cx="58.7" cy="48.5" r="0.5"></circle><circle cx="58.7" cy="50.5" r="0.5"></circle><circle cx="58.7" cy="52.5" r="0.5"></circle><circle cx="58.7" cy="54.5" r="0.5"></circle><circle cx="58.7" cy="56.5" r="0.5"></circle><circle cx="58.7" cy="58.5" r="0.5"></circle><circle cx="58.7" cy="60.5" r="0.5"></circle><circle cx="58.7" cy="62.5" r="0.5"></circle><circle cx="58.7" cy="64.5" r="0.5"></circle><circle cx="58.7" cy="66.5" r="0.5"></circle><circle cx="58.7" cy="68.5" r="0.5"></circle><circle cx="58.7" cy="70.5" r="0.5"></circle><circle cx="58.7" cy="72.5" r="0.5"></circle><circle cx="58.7" cy="74.5" r="0.5"></circle><circle cx="58.7" cy="76.5" r="0.5"></circle><circle cx="58.7" cy="78.5" r="0.5"></circle><circle cx="58.7" cy="80.5" r="0.5"></circle><circle cx="58.7" cy="82.5" r="0.5"></circle><circle cx="56.7" cy="42.5" r="0.5"></circle><circle cx="56.7" cy="44.5" r="0.5"></circle><circle cx="56.7" cy="46.5" r="0.5"></circle><circle cx="56.7" cy="48.5" r="0.5"></circle><circle cx="56.7" cy="50.5" r="0.5"></circle><circle cx="56.7" cy="52.5" r="0.5"></circle><circle cx="56.7" cy="54.5" r="0.5"></circle><circle cx="56.7" cy="56.5" r="0.5"></circle><circle cx="56.7" cy="58.5" r="0.5"></circle><circle cx="56.7" cy="60.5" r="0.5"></circle><circle cx="56.7" cy="62.5" r="0.5"></circle><circle cx="56.7" cy="64.5" r="0.5"></circle><circle cx="56.7" cy="66.5" r="0.5"></circle><circle cx="56.7" cy="68.5" r="0.5"></circle><circle cx="56.7" cy="70.5" r="0.5"></circle><circle cx="56.7" cy="72.5" r="0.5"></circle><circle cx="56.7" cy="74.5" r="0.5"></circle><circle cx="56.7" cy="76.5" r="0.5"></circle><circle cx="56.7" cy="78.5" r="0.5"></circle><circle cx="56.7" cy="80.5" r="0.5"></circle><circle cx="56.7" cy="82.5" r="0.5"></circle><circle cx="54.7" cy="42.5" r="0.5"></circle><circle cx="54.7" cy="44.5" r="0.5"></circle><circle cx="54.7" cy="46.5" r="0.5"></circle><circle cx="54.7" cy="48.5" r="0.5"></circle><circle cx="54.7" cy="50.5" r="0.5"></circle><circle cx="54.7" cy="52.5" r="0.5"></circle><circle cx="54.7" cy="54.5" r="0.5"></circle><circle cx="54.7" cy="56.5" r="0.5"></circle><circle cx="54.7" cy="58.5" r="0.5"></circle><circle cx="54.7" cy="60.5" r="0.5"></circle><circle cx="54.7" cy="62.5" r="0.5"></circle><circle cx="54.7" cy="64.5" r="0.5"></circle><circle cx="54.7" cy="66.5" r="0.5"></circle><circle cx="54.7" cy="68.5" r="0.5"></circle><circle cx="54.7" cy="70.5" r="0.5"></circle><circle cx="54.7" cy="72.5" r="0.5"></circle><circle cx="54.7" cy="74.5" r="0.5"></circle><circle cx="54.7" cy="76.5" r="0.5"></circle><circle cx="54.7" cy="78.5" r="0.5"></circle><circle cx="54.7" cy="80.5" r="0.5"></circle><circle cx="54.7" cy="82.5" r="0.5"></circle><circle cx="52.7" cy="42.5" r="0.5"></circle><circle cx="52.7" cy="44.5" r="0.5"></circle><circle cx="52.7" cy="46.5" r="0.5"></circle><circle cx="52.7" cy="48.5" r="0.5"></circle><circle cx="52.7" cy="50.5" r="0.5"></circle><circle cx="52.7" cy="52.5" r="0.5"></circle><circle cx="52.7" cy="54.5" r="0.5"></circle><circle cx="52.7" cy="56.5" r="0.5"></circle><circle cx="52.7" cy="58.5" r="0.5"></circle><circle cx="52.7" cy="60.5" r="0.5"></circle><circle cx="52.7" cy="62.5" r="0.5"></circle><circle cx="52.7" cy="64.5" r="0.5"></circle><circle cx="52.7" cy="66.5" r="0.5"></circle><circle cx="52.7" cy="68.5" r="0.5"></circle><circle cx="52.7" cy="70.5" r="0.5"></circle><circle cx="52.7" cy="72.5" r="0.5"></circle><circle cx="52.7" cy="74.5" r="0.5"></circle><circle cx="52.7" cy="76.5" r="0.5"></circle><circle cx="52.7" cy="78.5" r="0.5"></circle><circle cx="52.7" cy="80.5" r="0.5"></circle><circle cx="52.7" cy="82.5" r="0.5"></circle><circle cx="96.7" cy="0.5" r="0.5"></circle><circle cx="96.7" cy="2.5" r="0.5"></circle><circle cx="96.7" cy="4.5" r="0.5"></circle><circle cx="96.7" cy="6.5" r="0.5"></circle><circle cx="96.7" cy="8.5" r="0.5"></circle><circle cx="96.7" cy="10.5" r="0.5"></circle><circle cx="96.7" cy="12.5" r="0.5"></circle><circle cx="96.7" cy="14.5" r="0.5"></circle><circle cx="96.7" cy="16.5" r="0.5"></circle><circle cx="96.7" cy="18.5" r="0.5"></circle><circle cx="96.7" cy="20.5" r="0.5"></circle><circle cx="96.7" cy="22.5" r="0.5"></circle><circle cx="96.7" cy="24.5" r="0.5"></circle><circle cx="96.7" cy="26.5" r="0.5"></circle><circle cx="96.7" cy="28.5" r="0.5"></circle><circle cx="96.7" cy="30.5" r="0.5"></circle><circle cx="96.7" cy="32.5" r="0.5"></circle><circle cx="96.7" cy="34.5" r="0.5"></circle><circle cx="96.7" cy="36.5" r="0.5"></circle><circle cx="96.7" cy="38.5" r="0.5"></circle><circle cx="96.7" cy="40.5" r="0.5"></circle><circle cx="94.7" cy="0.5" r="0.5"></circle><circle cx="94.7" cy="2.5" r="0.5"></circle><circle cx="94.7" cy="4.5" r="0.5"></circle><circle cx="94.7" cy="6.5" r="0.5"></circle><circle cx="94.7" cy="8.5" r="0.5"></circle><circle cx="94.7" cy="10.5" r="0.5"></circle><circle cx="94.7" cy="12.5" r="0.5"></circle><circle cx="94.7" cy="14.5" r="0.5"></circle><circle cx="94.7" cy="16.5" r="0.5"></circle><circle cx="94.7" cy="18.5" r="0.5"></circle><circle cx="94.7" cy="20.5" r="0.5"></circle><circle cx="94.7" cy="22.5" r="0.5"></circle><circle cx="94.7" cy="24.5" r="0.5"></circle><circle cx="94.7" cy="26.5" r="0.5"></circle><circle cx="94.7" cy="28.5" r="0.5"></circle><circle cx="94.7" cy="30.5" r="0.5"></circle><circle cx="94.7" cy="32.5" r="0.5"></circle><circle cx="94.7" cy="34.5" r="0.5"></circle><circle cx="94.7" cy="36.5" r="0.5"></circle><circle cx="94.7" cy="38.5" r="0.5"></circle><circle cx="94.7" cy="40.5" r="0.5"></circle><circle cx="92.7" cy="0.5" r="0.5"></circle><circle cx="92.7" cy="2.5" r="0.5"></circle><circle cx="92.7" cy="4.5" r="0.5"></circle><circle cx="92.7" cy="6.5" r="0.5"></circle><circle cx="92.7" cy="8.5" r="0.5"></circle><circle cx="92.7" cy="10.5" r="0.5"></circle><circle cx="92.7" cy="12.5" r="0.5"></circle><circle cx="92.7" cy="14.5" r="0.5"></circle><circle cx="92.7" cy="16.5" r="0.5"></circle><circle cx="92.7" cy="18.5" r="0.5"></circle><circle cx="92.7" cy="20.5" r="0.5"></circle><circle cx="92.7" cy="22.5" r="0.5"></circle><circle cx="92.7" cy="24.5" r="0.5"></circle><circle cx="92.7" cy="26.5" r="0.5"></circle><circle cx="92.7" cy="28.5" r="0.5"></circle><circle cx="92.7" cy="30.5" r="0.5"></circle><circle cx="92.7" cy="32.5" r="0.5"></circle><circle cx="92.7" cy="34.5" r="0.5"></circle><circle cx="92.7" cy="36.5" r="0.5"></circle><circle cx="92.7" cy="38.5" r="0.5"></circle><circle cx="92.7" cy="40.5" r="0.5"></circle><circle cx="90.7" cy="0.5" r="0.5"></circle><circle cx="90.7" cy="2.5" r="0.5"></circle><circle cx="90.7" cy="4.5" r="0.5"></circle><circle cx="90.7" cy="6.5" r="0.5"></circle><circle cx="90.7" cy="8.5" r="0.5"></circle><circle cx="90.7" cy="10.5" r="0.5"></circle><circle cx="90.7" cy="12.5" r="0.5"></circle><circle cx="90.7" cy="14.5" r="0.5"></circle><circle cx="90.7" cy="16.5" r="0.5"></circle><circle cx="90.7" cy="18.5" r="0.5"></circle><circle cx="90.7" cy="20.5" r="0.5"></circle><circle cx="90.7" cy="22.5" r="0.5"></circle><circle cx="90.7" cy="24.5" r="0.5"></circle><circle cx="90.7" cy="26.5" r="0.5"></circle><circle cx="90.7" cy="28.5" r="0.5"></circle><circle cx="90.7" cy="30.5" r="0.5"></circle><circle cx="90.7" cy="32.5" r="0.5"></circle><circle cx="90.7" cy="34.5" r="0.5"></circle><circle cx="90.7" cy="36.5" r="0.5"></circle><circle cx="90.7" cy="38.5" r="0.5"></circle><circle cx="90.7" cy="40.5" r="0.5"></circle><circle cx="88.7" cy="0.5" r="0.5"></circle><circle cx="88.7" cy="2.5" r="0.5"></circle><circle cx="88.7" cy="4.5" r="0.5"></circle><circle cx="88.7" cy="6.5" r="0.5"></circle><circle cx="88.7" cy="8.5" r="0.5"></circle><circle cx="88.7" cy="10.5" r="0.5"></circle><circle cx="88.7" cy="12.5" r="0.5"></circle><circle cx="88.7" cy="14.5" r="0.5"></circle><circle cx="88.7" cy="16.5" r="0.5"></circle><circle cx="88.7" cy="18.5" r="0.5"></circle><circle cx="88.7" cy="20.5" r="0.5"></circle><circle cx="88.7" cy="22.5" r="0.5"></circle><circle cx="88.7" cy="24.5" r="0.5"></circle><circle cx="88.7" cy="26.5" r="0.5"></circle><circle cx="88.7" cy="28.5" r="0.5"></circle><circle cx="88.7" cy="30.5" r="0.5"></circle><circle cx="88.7" cy="32.5" r="0.5"></circle><circle cx="88.7" cy="34.5" r="0.5"></circle><circle cx="88.7" cy="36.5" r="0.5"></circle><circle cx="88.7" cy="38.5" r="0.5"></circle><circle cx="88.7" cy="40.5" r="0.5"></circle><circle cx="86.7" cy="0.5" r="0.5"></circle><circle cx="86.7" cy="2.5" r="0.5"></circle><circle cx="86.7" cy="4.5" r="0.5"></circle><circle cx="86.7" cy="6.5" r="0.5"></circle><circle cx="86.7" cy="8.5" r="0.5"></circle><circle cx="86.7" cy="10.5" r="0.5"></circle><circle cx="86.7" cy="12.5" r="0.5"></circle><circle cx="86.7" cy="14.5" r="0.5"></circle><circle cx="86.7" cy="16.5" r="0.5"></circle><circle cx="86.7" cy="18.5" r="0.5"></circle><circle cx="86.7" cy="20.5" r="0.5"></circle><circle cx="86.7" cy="22.5" r="0.5"></circle><circle cx="86.7" cy="24.5" r="0.5"></circle><circle cx="86.7" cy="26.5" r="0.5"></circle><circle cx="86.7" cy="28.5" r="0.5"></circle><circle cx="86.7" cy="30.5" r="0.5"></circle><circle cx="86.7" cy="32.5" r="0.5"></circle><circle cx="86.7" cy="34.5" r="0.5"></circle><circle cx="86.7" cy="36.5" r="0.5"></circle><circle cx="86.7" cy="38.5" r="0.5"></circle><circle cx="86.7" cy="40.5" r="0.5"></circle><circle cx="84.7" cy="0.5" r="0.5"></circle><circle cx="84.7" cy="2.5" r="0.5"></circle><circle cx="84.7" cy="4.5" r="0.5"></circle><circle cx="84.7" cy="6.5" r="0.5"></circle><circle cx="84.7" cy="8.5" r="0.5"></circle><circle cx="84.7" cy="10.5" r="0.5"></circle><circle cx="84.7" cy="12.5" r="0.5"></circle><circle cx="84.7" cy="14.5" r="0.5"></circle><circle cx="84.7" cy="16.5" r="0.5"></circle><circle cx="84.7" cy="18.5" r="0.5"></circle><circle cx="84.7" cy="20.5" r="0.5"></circle><circle cx="84.7" cy="22.5" r="0.5"></circle><circle cx="84.7" cy="24.5" r="0.5"></circle><circle cx="84.7" cy="26.5" r="0.5"></circle><circle cx="84.7" cy="28.5" r="0.5"></circle><circle cx="84.7" cy="30.5" r="0.5"></circle><circle cx="84.7" cy="32.5" r="0.5"></circle><circle cx="84.7" cy="34.5" r="0.5"></circle><circle cx="84.7" cy="36.5" r="0.5"></circle><circle cx="84.7" cy="38.5" r="0.5"></circle><circle cx="84.7" cy="40.5" r="0.5"></circle><circle cx="82.7" cy="0.5" r="0.5"></circle><circle cx="82.7" cy="2.5" r="0.5"></circle><circle cx="82.7" cy="4.5" r="0.5"></circle><circle cx="82.7" cy="6.5" r="0.5"></circle><circle cx="82.7" cy="8.5" r="0.5"></circle><circle cx="82.7" cy="10.5" r="0.5"></circle><circle cx="82.7" cy="12.5" r="0.5"></circle><circle cx="82.7" cy="14.5" r="0.5"></circle><circle cx="82.7" cy="16.5" r="0.5"></circle><circle cx="82.7" cy="18.5" r="0.5"></circle><circle cx="82.7" cy="20.5" r="0.5"></circle><circle cx="82.7" cy="22.5" r="0.5"></circle><circle cx="82.7" cy="24.5" r="0.5"></circle><circle cx="82.7" cy="26.5" r="0.5"></circle><circle cx="82.7" cy="28.5" r="0.5"></circle><circle cx="82.7" cy="30.5" r="0.5"></circle><circle cx="82.7" cy="32.5" r="0.5"></circle><circle cx="82.7" cy="34.5" r="0.5"></circle><circle cx="82.7" cy="36.5" r="0.5"></circle><circle cx="82.7" cy="38.5" r="0.5"></circle><circle cx="82.7" cy="40.5" r="0.5"></circle><circle cx="80.7" cy="0.5" r="0.5"></circle><circle cx="80.7" cy="2.5" r="0.5"></circle><circle cx="80.7" cy="4.5" r="0.5"></circle><circle cx="80.7" cy="6.5" r="0.5"></circle><circle cx="80.7" cy="8.5" r="0.5"></circle><circle cx="80.7" cy="10.5" r="0.5"></circle><circle cx="80.7" cy="12.5" r="0.5"></circle><circle cx="80.7" cy="14.5" r="0.5"></circle><circle cx="80.7" cy="16.5" r="0.5"></circle><circle cx="80.7" cy="18.5" r="0.5"></circle><circle cx="80.7" cy="20.5" r="0.5"></circle><circle cx="80.7" cy="22.5" r="0.5"></circle><circle cx="80.7" cy="24.5" r="0.5"></circle><circle cx="80.7" cy="26.5" r="0.5"></circle><circle cx="80.7" cy="28.5" r="0.5"></circle><circle cx="80.7" cy="30.5" r="0.5"></circle><circle cx="80.7" cy="32.5" r="0.5"></circle><circle cx="80.7" cy="34.5" r="0.5"></circle><circle cx="80.7" cy="36.5" r="0.5"></circle><circle cx="80.7" cy="38.5" r="0.5"></circle><circle cx="80.7" cy="40.5" r="0.5"></circle><circle cx="78.7" cy="0.5" r="0.5"></circle><circle cx="78.7" cy="2.5" r="0.5"></circle><circle cx="78.7" cy="4.5" r="0.5"></circle><circle cx="78.7" cy="6.5" r="0.5"></circle><circle cx="78.7" cy="8.5" r="0.5"></circle><circle cx="78.7" cy="10.5" r="0.5"></circle><circle cx="78.7" cy="12.5" r="0.5"></circle><circle cx="78.7" cy="14.5" r="0.5"></circle><circle cx="78.7" cy="16.5" r="0.5"></circle><circle cx="78.7" cy="18.5" r="0.5"></circle><circle cx="78.7" cy="20.5" r="0.5"></circle><circle cx="78.7" cy="22.5" r="0.5"></circle><circle cx="78.7" cy="24.5" r="0.5"></circle><circle cx="78.7" cy="26.5" r="0.5"></circle><circle cx="78.7" cy="28.5" r="0.5"></circle><circle cx="78.7" cy="30.5" r="0.5"></circle><circle cx="78.7" cy="32.5" r="0.5"></circle><circle cx="78.7" cy="34.5" r="0.5"></circle><circle cx="78.7" cy="36.5" r="0.5"></circle><circle cx="78.7" cy="38.5" r="0.5"></circle><circle cx="78.7" cy="40.5" r="0.5"></circle><circle cx="76.7" cy="0.5" r="0.5"></circle><circle cx="76.7" cy="2.5" r="0.5"></circle><circle cx="76.7" cy="4.5" r="0.5"></circle><circle cx="76.7" cy="6.5" r="0.5"></circle><circle cx="76.7" cy="8.5" r="0.5"></circle><circle cx="76.7" cy="10.5" r="0.5"></circle><circle cx="76.7" cy="12.5" r="0.5"></circle><circle cx="76.7" cy="14.5" r="0.5"></circle><circle cx="76.7" cy="16.5" r="0.5"></circle><circle cx="76.7" cy="18.5" r="0.5"></circle><circle cx="76.7" cy="20.5" r="0.5"></circle><circle cx="76.7" cy="22.5" r="0.5"></circle><circle cx="76.7" cy="24.5" r="0.5"></circle><circle cx="76.7" cy="26.5" r="0.5"></circle><circle cx="76.7" cy="28.5" r="0.5"></circle><circle cx="76.7" cy="30.5" r="0.5"></circle><circle cx="76.7" cy="32.5" r="0.5"></circle><circle cx="76.7" cy="34.5" r="0.5"></circle><circle cx="76.7" cy="36.5" r="0.5"></circle><circle cx="76.7" cy="38.5" r="0.5"></circle><circle cx="76.7" cy="40.5" r="0.5"></circle><circle cx="74.7" cy="0.5" r="0.5"></circle><circle cx="74.7" cy="2.5" r="0.5"></circle><circle cx="74.7" cy="4.5" r="0.5"></circle><circle cx="74.7" cy="6.5" r="0.5"></circle><circle cx="74.7" cy="8.5" r="0.5"></circle><circle cx="74.7" cy="10.5" r="0.5"></circle><circle cx="74.7" cy="12.5" r="0.5"></circle><circle cx="74.7" cy="14.5" r="0.5"></circle><circle cx="74.7" cy="16.5" r="0.5"></circle><circle cx="74.7" cy="18.5" r="0.5"></circle><circle cx="74.7" cy="20.5" r="0.5"></circle><circle cx="74.7" cy="22.5" r="0.5"></circle><circle cx="74.7" cy="24.5" r="0.5"></circle><circle cx="74.7" cy="26.5" r="0.5"></circle><circle cx="74.7" cy="28.5" r="0.5"></circle><circle cx="74.7" cy="30.5" r="0.5"></circle><circle cx="74.7" cy="32.5" r="0.5"></circle><circle cx="74.7" cy="34.5" r="0.5"></circle><circle cx="74.7" cy="36.5" r="0.5"></circle><circle cx="74.7" cy="38.5" r="0.5"></circle><circle cx="74.7" cy="40.5" r="0.5"></circle><circle cx="96.7" cy="42.5" r="0.5"></circle><circle cx="96.7" cy="44.5" r="0.5"></circle><circle cx="96.7" cy="46.5" r="0.5"></circle><circle cx="96.7" cy="48.5" r="0.5"></circle><circle cx="96.7" cy="50.5" r="0.5"></circle><circle cx="96.7" cy="52.5" r="0.5"></circle><circle cx="96.7" cy="54.5" r="0.5"></circle><circle cx="96.7" cy="56.5" r="0.5"></circle><circle cx="96.7" cy="58.5" r="0.5"></circle><circle cx="96.7" cy="60.5" r="0.5"></circle><circle cx="96.7" cy="62.5" r="0.5"></circle><circle cx="96.7" cy="64.5" r="0.5"></circle><circle cx="96.7" cy="66.5" r="0.5"></circle><circle cx="96.7" cy="68.5" r="0.5"></circle><circle cx="96.7" cy="70.5" r="0.5"></circle><circle cx="96.7" cy="72.5" r="0.5"></circle><circle cx="96.7" cy="74.5" r="0.5"></circle><circle cx="96.7" cy="76.5" r="0.5"></circle><circle cx="96.7" cy="78.5" r="0.5"></circle><circle cx="96.7" cy="80.5" r="0.5"></circle><circle cx="96.7" cy="82.5" r="0.5"></circle><circle cx="94.7" cy="42.5" r="0.5"></circle><circle cx="94.7" cy="44.5" r="0.5"></circle><circle cx="94.7" cy="46.5" r="0.5"></circle><circle cx="94.7" cy="48.5" r="0.5"></circle><circle cx="94.7" cy="50.5" r="0.5"></circle><circle cx="94.7" cy="52.5" r="0.5"></circle><circle cx="94.7" cy="54.5" r="0.5"></circle><circle cx="94.7" cy="56.5" r="0.5"></circle><circle cx="94.7" cy="58.5" r="0.5"></circle><circle cx="94.7" cy="60.5" r="0.5"></circle><circle cx="94.7" cy="62.5" r="0.5"></circle><circle cx="94.7" cy="64.5" r="0.5"></circle><circle cx="94.7" cy="66.5" r="0.5"></circle><circle cx="94.7" cy="68.5" r="0.5"></circle><circle cx="94.7" cy="70.5" r="0.5"></circle><circle cx="94.7" cy="72.5" r="0.5"></circle><circle cx="94.7" cy="74.5" r="0.5"></circle><circle cx="94.7" cy="76.5" r="0.5"></circle><circle cx="94.7" cy="78.5" r="0.5"></circle><circle cx="94.7" cy="80.5" r="0.5"></circle><circle cx="94.7" cy="82.5" r="0.5"></circle><circle cx="92.7" cy="42.5" r="0.5"></circle><circle cx="92.7" cy="44.5" r="0.5"></circle><circle cx="92.7" cy="46.5" r="0.5"></circle><circle cx="92.7" cy="48.5" r="0.5"></circle><circle cx="92.7" cy="50.5" r="0.5"></circle><circle cx="92.7" cy="52.5" r="0.5"></circle><circle cx="92.7" cy="54.5" r="0.5"></circle><circle cx="92.7" cy="56.5" r="0.5"></circle><circle cx="92.7" cy="58.5" r="0.5"></circle><circle cx="92.7" cy="60.5" r="0.5"></circle><circle cx="92.7" cy="62.5" r="0.5"></circle><circle cx="92.7" cy="64.5" r="0.5"></circle><circle cx="92.7" cy="66.5" r="0.5"></circle><circle cx="92.7" cy="68.5" r="0.5"></circle><circle cx="92.7" cy="70.5" r="0.5"></circle><circle cx="92.7" cy="72.5" r="0.5"></circle><circle cx="92.7" cy="74.5" r="0.5"></circle><circle cx="92.7" cy="76.5" r="0.5"></circle><circle cx="92.7" cy="78.5" r="0.5"></circle><circle cx="92.7" cy="80.5" r="0.5"></circle><circle cx="92.7" cy="82.5" r="0.5"></circle><circle cx="90.7" cy="42.5" r="0.5"></circle><circle cx="90.7" cy="44.5" r="0.5"></circle><circle cx="90.7" cy="46.5" r="0.5"></circle><circle cx="90.7" cy="48.5" r="0.5"></circle><circle cx="90.7" cy="50.5" r="0.5"></circle><circle cx="90.7" cy="52.5" r="0.5"></circle><circle cx="90.7" cy="54.5" r="0.5"></circle><circle cx="90.7" cy="56.5" r="0.5"></circle><circle cx="90.7" cy="58.5" r="0.5"></circle><circle cx="90.7" cy="60.5" r="0.5"></circle><circle cx="90.7" cy="62.5" r="0.5"></circle><circle cx="90.7" cy="64.5" r="0.5"></circle><circle cx="90.7" cy="66.5" r="0.5"></circle><circle cx="90.7" cy="68.5" r="0.5"></circle><circle cx="90.7" cy="70.5" r="0.5"></circle><circle cx="90.7" cy="72.5" r="0.5"></circle><circle cx="90.7" cy="74.5" r="0.5"></circle><circle cx="90.7" cy="76.5" r="0.5"></circle><circle cx="90.7" cy="78.5" r="0.5"></circle><circle cx="90.7" cy="80.5" r="0.5"></circle><circle cx="90.7" cy="82.5" r="0.5"></circle><circle cx="88.7" cy="42.5" r="0.5"></circle><circle cx="88.7" cy="44.5" r="0.5"></circle><circle cx="88.7" cy="46.5" r="0.5"></circle><circle cx="88.7" cy="48.5" r="0.5"></circle><circle cx="88.7" cy="50.5" r="0.5"></circle><circle cx="88.7" cy="52.5" r="0.5"></circle><circle cx="88.7" cy="54.5" r="0.5"></circle><circle cx="88.7" cy="56.5" r="0.5"></circle><circle cx="88.7" cy="58.5" r="0.5"></circle><circle cx="88.7" cy="60.5" r="0.5"></circle><circle cx="88.7" cy="62.5" r="0.5"></circle><circle cx="88.7" cy="64.5" r="0.5"></circle><circle cx="88.7" cy="66.5" r="0.5"></circle><circle cx="88.7" cy="68.5" r="0.5"></circle><circle cx="88.7" cy="70.5" r="0.5"></circle><circle cx="88.7" cy="72.5" r="0.5"></circle><circle cx="88.7" cy="74.5" r="0.5"></circle><circle cx="88.7" cy="76.5" r="0.5"></circle><circle cx="88.7" cy="78.5" r="0.5"></circle><circle cx="88.7" cy="80.5" r="0.5"></circle><circle cx="88.7" cy="82.5" r="0.5"></circle><circle cx="86.7" cy="42.5" r="0.5"></circle><circle cx="86.7" cy="44.5" r="0.5"></circle><circle cx="86.7" cy="46.5" r="0.5"></circle><circle cx="86.7" cy="48.5" r="0.5"></circle><circle cx="86.7" cy="50.5" r="0.5"></circle><circle cx="86.7" cy="52.5" r="0.5"></circle><circle cx="86.7" cy="54.5" r="0.5"></circle><circle cx="86.7" cy="56.5" r="0.5"></circle><circle cx="86.7" cy="58.5" r="0.5"></circle><circle cx="86.7" cy="60.5" r="0.5"></circle><circle cx="86.7" cy="62.5" r="0.5"></circle><circle cx="86.7" cy="64.5" r="0.5"></circle><circle cx="86.7" cy="66.5" r="0.5"></circle><circle cx="86.7" cy="68.5" r="0.5"></circle><circle cx="86.7" cy="70.5" r="0.5"></circle><circle cx="86.7" cy="72.5" r="0.5"></circle><circle cx="86.7" cy="74.5" r="0.5"></circle><circle cx="86.7" cy="76.5" r="0.5"></circle><circle cx="86.7" cy="78.5" r="0.5"></circle><circle cx="86.7" cy="80.5" r="0.5"></circle><circle cx="86.7" cy="82.5" r="0.5"></circle><circle cx="84.7" cy="42.5" r="0.5"></circle><circle cx="84.7" cy="44.5" r="0.5"></circle><circle cx="84.7" cy="46.5" r="0.5"></circle><circle cx="84.7" cy="48.5" r="0.5"></circle><circle cx="84.7" cy="50.5" r="0.5"></circle><circle cx="84.7" cy="52.5" r="0.5"></circle><circle cx="84.7" cy="54.5" r="0.5"></circle><circle cx="84.7" cy="56.5" r="0.5"></circle><circle cx="84.7" cy="58.5" r="0.5"></circle><circle cx="84.7" cy="60.5" r="0.5"></circle><circle cx="84.7" cy="62.5" r="0.5"></circle><circle cx="84.7" cy="64.5" r="0.5"></circle><circle cx="84.7" cy="66.5" r="0.5"></circle><circle cx="84.7" cy="68.5" r="0.5"></circle><circle cx="84.7" cy="70.5" r="0.5"></circle><circle cx="84.7" cy="72.5" r="0.5"></circle><circle cx="84.7" cy="74.5" r="0.5"></circle><circle cx="84.7" cy="76.5" r="0.5"></circle><circle cx="84.7" cy="78.5" r="0.5"></circle><circle cx="84.7" cy="80.5" r="0.5"></circle><circle cx="84.7" cy="82.5" r="0.5"></circle><circle cx="82.7" cy="42.5" r="0.5"></circle><circle cx="82.7" cy="44.5" r="0.5"></circle><circle cx="82.7" cy="46.5" r="0.5"></circle><circle cx="82.7" cy="48.5" r="0.5"></circle><circle cx="82.7" cy="50.5" r="0.5"></circle><circle cx="82.7" cy="52.5" r="0.5"></circle><circle cx="82.7" cy="54.5" r="0.5"></circle><circle cx="82.7" cy="56.5" r="0.5"></circle><circle cx="82.7" cy="58.5" r="0.5"></circle><circle cx="82.7" cy="60.5" r="0.5"></circle><circle cx="82.7" cy="62.5" r="0.5"></circle><circle cx="82.7" cy="64.5" r="0.5"></circle><circle cx="82.7" cy="66.5" r="0.5"></circle><circle cx="82.7" cy="68.5" r="0.5"></circle><circle cx="82.7" cy="70.5" r="0.5"></circle><circle cx="82.7" cy="72.5" r="0.5"></circle><circle cx="82.7" cy="74.5" r="0.5"></circle><circle cx="82.7" cy="76.5" r="0.5"></circle><circle cx="82.7" cy="78.5" r="0.5"></circle><circle cx="82.7" cy="80.5" r="0.5"></circle><circle cx="82.7" cy="82.5" r="0.5"></circle><circle cx="80.7" cy="42.5" r="0.5"></circle><circle cx="80.7" cy="44.5" r="0.5"></circle><circle cx="80.7" cy="46.5" r="0.5"></circle><circle cx="80.7" cy="48.5" r="0.5"></circle><circle cx="80.7" cy="50.5" r="0.5"></circle><circle cx="80.7" cy="52.5" r="0.5"></circle><circle cx="80.7" cy="54.5" r="0.5"></circle><circle cx="80.7" cy="56.5" r="0.5"></circle><circle cx="80.7" cy="58.5" r="0.5"></circle><circle cx="80.7" cy="60.5" r="0.5"></circle><circle cx="80.7" cy="62.5" r="0.5"></circle><circle cx="80.7" cy="64.5" r="0.5"></circle><circle cx="80.7" cy="66.5" r="0.5"></circle><circle cx="80.7" cy="68.5" r="0.5"></circle><circle cx="80.7" cy="70.5" r="0.5"></circle><circle cx="80.7" cy="72.5" r="0.5"></circle><circle cx="80.7" cy="74.5" r="0.5"></circle><circle cx="80.7" cy="76.5" r="0.5"></circle><circle cx="80.7" cy="78.5" r="0.5"></circle><circle cx="80.7" cy="80.5" r="0.5"></circle><circle cx="80.7" cy="82.5" r="0.5"></circle><circle cx="78.7" cy="42.5" r="0.5"></circle><circle cx="78.7" cy="44.5" r="0.5"></circle><circle cx="78.7" cy="46.5" r="0.5"></circle><circle cx="78.7" cy="48.5" r="0.5"></circle><circle cx="78.7" cy="50.5" r="0.5"></circle><circle cx="78.7" cy="52.5" r="0.5"></circle><circle cx="78.7" cy="54.5" r="0.5"></circle><circle cx="78.7" cy="56.5" r="0.5"></circle><circle cx="78.7" cy="58.5" r="0.5"></circle><circle cx="78.7" cy="60.5" r="0.5"></circle><circle cx="78.7" cy="62.5" r="0.5"></circle><circle cx="78.7" cy="64.5" r="0.5"></circle><circle cx="78.7" cy="66.5" r="0.5"></circle><circle cx="78.7" cy="68.5" r="0.5"></circle><circle cx="78.7" cy="70.5" r="0.5"></circle><circle cx="78.7" cy="72.5" r="0.5"></circle><circle cx="78.7" cy="74.5" r="0.5"></circle><circle cx="78.7" cy="76.5" r="0.5"></circle><circle cx="78.7" cy="78.5" r="0.5"></circle><circle cx="78.7" cy="80.5" r="0.5"></circle><circle cx="78.7" cy="82.5" r="0.5"></circle><circle cx="76.7" cy="42.5" r="0.5"></circle><circle cx="76.7" cy="44.5" r="0.5"></circle><circle cx="76.7" cy="46.5" r="0.5"></circle><circle cx="76.7" cy="48.5" r="0.5"></circle><circle cx="76.7" cy="50.5" r="0.5"></circle><circle cx="76.7" cy="52.5" r="0.5"></circle><circle cx="76.7" cy="54.5" r="0.5"></circle><circle cx="76.7" cy="56.5" r="0.5"></circle><circle cx="76.7" cy="58.5" r="0.5"></circle><circle cx="76.7" cy="60.5" r="0.5"></circle><circle cx="76.7" cy="62.5" r="0.5"></circle><circle cx="76.7" cy="64.5" r="0.5"></circle><circle cx="76.7" cy="66.5" r="0.5"></circle><circle cx="76.7" cy="68.5" r="0.5"></circle><circle cx="76.7" cy="70.5" r="0.5"></circle><circle cx="76.7" cy="72.5" r="0.5"></circle><circle cx="76.7" cy="74.5" r="0.5"></circle><circle cx="76.7" cy="76.5" r="0.5"></circle><circle cx="76.7" cy="78.5" r="0.5"></circle><circle cx="76.7" cy="80.5" r="0.5"></circle><circle cx="76.7" cy="82.5" r="0.5"></circle><circle cx="74.7" cy="42.5" r="0.5"></circle><circle cx="74.7" cy="44.5" r="0.5"></circle><circle cx="74.7" cy="46.5" r="0.5"></circle><circle cx="74.7" cy="48.5" r="0.5"></circle><circle cx="74.7" cy="50.5" r="0.5"></circle><circle cx="74.7" cy="52.5" r="0.5"></circle><circle cx="74.7" cy="54.5" r="0.5"></circle><circle cx="74.7" cy="56.5" r="0.5"></circle><circle cx="74.7" cy="58.5" r="0.5"></circle><circle cx="74.7" cy="60.5" r="0.5"></circle><circle cx="74.7" cy="62.5" r="0.5"></circle><circle cx="74.7" cy="64.5" r="0.5"></circle><circle cx="74.7" cy="66.5" r="0.5"></circle><circle cx="74.7" cy="68.5" r="0.5"></circle><circle cx="74.7" cy="70.5" r="0.5"></circle><circle cx="74.7" cy="72.5" r="0.5"></circle><circle cx="74.7" cy="74.5" r="0.5"></circle><circle cx="74.7" cy="76.5" r="0.5"></circle><circle cx="74.7" cy="78.5" r="0.5"></circle><circle cx="74.7" cy="80.5" r="0.5"></circle><circle cx="74.7" cy="82.5" r="0.5"></circle></g><path d="M90,51.52a6.8,6.8,0,0,0-2.06-5.14,18.31,18.31,0,0,0-8.41-4.66,14.12,14.12,0,0,0,3.13-7.49,10.08,10.08,0,0,0-9.92-11.42h-.06A10,10,0,0,0,63,30.22a13.36,13.36,0,0,0,2.85,11.5,17.88,17.88,0,0,0-8.66,4.92,5.85,5.85,0,0,0-1.71,3.51c-.1,1.54-.08,3.07-.07,4.55,0,.56,0,1.13,0,1.7v2.76H90V56.4c0-.52,0-1,0-1.56C90,53.69,90,52.6,90,51.52ZM65.67,30.93a7.3,7.3,0,0,1,7-5.36h0a7.32,7.32,0,0,1,7.2,8.3,10.45,10.45,0,0,1-4.27,7.68,5.09,5.09,0,0,1-2.93,1,5.29,5.29,0,0,1-2.84-.9A10.6,10.6,0,0,1,65.67,30.93ZM87.22,56.4h-29c0-2.07-.08-4.08,0-6.08a3.42,3.42,0,0,1,1-1.83A15.33,15.33,0,0,1,67,44.27l.17,0a1.84,1.84,0,0,1,.85.29,8.45,8.45,0,0,0,9.32,0,1.92,1.92,0,0,1,.91-.28.84.84,0,0,1,.22,0,16,16,0,0,1,7.51,4,4.07,4.07,0,0,1,1.27,3.11C87.18,53.06,87.22,54.7,87.22,56.4Z"></path></g></g></svg></g></g></svg>