<svg xmlns="http://www.w3.org/2000/svg" xmlns:xlink="http://www.w3.org/1999/xlink" width="100" height="100" viewBox="0 0 100 100"><g><g transform="translate(50 50) scale(0.69 0.69) rotate(0) translate(-50 -50)" style="fill:#000000"><svg fill="#000000" xmlns="http://www.w3.org/2000/svg" data-name="Layer 1" viewBox="0 0 64 64" x="0px" y="0px"><title>coins-money-stack-business-cash-currency</title><path d="M47,38V29.021c7.118.218,12,2.719,12,4.979v1c0,2.26-4.882,4.761-12,4.979Zm0,5V41.978c5.255-.148,9.607-1.444,12-3.4V40c0,2.26-4.882,4.761-12,4.979Zm0,5V46.978c5.255-.148,9.607-1.444,12-3.4V45c0,2.26-4.882,4.761-12,4.979ZM33,33V24.021c7.118.218,12,2.719,12,4.979v1c0,2.26-4.882,4.761-12,4.979Zm0,5V36.978c5.255-.148,9.607-1.444,12-3.4V35c0,2.26-4.882,4.761-12,4.979Zm0,5V41.978c5.255-.148,9.607-1.444,12-3.4V40c0,2.26-4.882,4.761-12,4.979Zm0,6V46.978c5.255-.148,9.607-1.444,12-3.4V45c0,2.26-4.882,4.761-12,4.979Zm0,2.978c5.255-.148,9.607-1.444,12-3.4V50c0,2.26-4.882,4.761-12,4.979ZM5,9c0-2.365,5.339-5,13-5S31,6.635,31,9v1c0,2.365-5.339,5-13,5S5,12.365,5,10Zm0,4.583C7.544,15.658,12.3,17,18,17s10.456-1.342,13-3.417V15c0,2.365-5.339,5-13,5S5,17.365,5,15Zm0,5C7.544,20.658,12.3,22,18,22s10.456-1.342,13-3.417V20c0,2.365-5.339,5-13,5S5,22.365,5,20Zm0,5C7.544,25.658,12.3,27,18,27s10.456-1.342,13-3.417V25c0,2.365-5.339,5-13,5S5,27.365,5,25Zm0,5C7.544,30.658,12.3,32,18,32s10.456-1.342,13-3.417V30c0,2.365-5.339,5-13,5S5,32.365,5,30Zm0,5C7.544,35.658,12.3,37,18,37s10.456-1.342,13-3.417V35c0,2.365-5.339,5-13,5S5,37.365,5,35Zm0,5C7.544,40.658,12.3,42,18,42s10.456-1.342,13-3.417V40c0,2.365-5.339,5-13,5S5,42.365,5,40Zm0,5C7.544,45.658,12.3,47,18,47s10.456-1.342,13-3.417V45c0,2.365-5.339,5-13,5S5,47.365,5,45ZM5,49v-.417C7.544,50.658,12.3,52,18,52s10.456-1.342,13-3.417V50c0,2.365-5.339,5-13,5S5,52.365,5,50Zm0,4.583C7.544,55.658,12.3,57,18,57s10.456-1.342,13-3.417V55c0,2.365-5.339,5-13,5S5,57.365,5,55Z"></path></svg></g></g></svg>