<svg xmlns="http://www.w3.org/2000/svg" xmlns:xlink="http://www.w3.org/1999/xlink" width="100" height="100" viewBox="0 0 100 100"><g><g transform="translate(50 50) scale(0.69 0.69) rotate(0) translate(-50 -50)" style="fill:#000000"><svg fill="#000000" xmlns:dc="http://purl.org/dc/elements/1.1/" xmlns:cc="http://creativecommons.org/ns#" xmlns:rdf="http://www.w3.org/1999/02/22-rdf-syntax-ns#" xmlns:svg="http://www.w3.org/2000/svg" xmlns:sodipodi="http://sodipodi.sourceforge.net/DTD/sodipodi-0.dtd" xmlns:inkscape="http://www.inkscape.org/namespaces/inkscape" xmlns="http://www.w3.org/2000/svg" xmlns:xlink="http://www.w3.org/1999/xlink" version="1.1" x="0px" y="0px" viewBox="1206.1 0 841.9 841.9" enable-background="new 1206.1 0 841.9 841.9" xml:space="preserve"><path d="M1633.4,359.3c-9.1-0.2-50.9-2.9-52.9-3.4c-1.2-0.2-2.1-0.9-3-1.7c-1-1.1-43.8-42.2-47.4-45.4c-6.7-7.4-15.2-12.6-30.6-12.9  c-18.3-1.7-30.5,7.2-30.5,7.2s-51.4,43-54.9,46.1c-3.5,2.7-7.1,11.2-7.1,11.2l-30.7,58.4c-2.4,4.6-1.8,16.1,5.8,20.6  c11.2,5.8,21.2-1.3,24.7-9l32.4-57.2l20.5-16.2l-2.5,80.8l2.2,98.7l-42.7,74.3c-3.5,5.2-4.7,12.2-2.4,19.1  c2.5,8.5,9.7,13.7,17.9,13.7c7.9,0,14.1-4.8,17.8-11.3c7.3-13.5,47.2-80.6,50.4-87c3.9-7.4,4.5-10.9,4.6-15.2  c0.1-4.3,2.8-60.4,2.8-60.4l69.5,26.4c0,0,30.6,68.8,36.8,80c6.5,11.7,18.1,16.5,28.3,10.9c8.9-5.2,9.7-17.9,4.8-28.3  c-4.2-9-23.2-58.4-30.4-73.1c-7-15-11.2-20.5-18.2-25.2c-1.8-1.4-65.2-32.4-65.2-32.4l-0.1-63.5c0,0,19.7,14.7,23.6,18  c3.2,2.7,8.2,5.5,14.4,5.9c4.3,0.2,56.7,3.3,60.4,3.6c9.5,0.6,18.4-6.3,18.8-14.7C1650.7,367.3,1643.9,360,1633.4,359.3z"></path><circle cx="1495.4" cy="247.5" r="34.8"></circle><path d="M1292.4,476.1l21.2-41.9c4.2-8.1,14.3-11.4,22.3-7.2l78.9,39.9c8.1,4.2,11.4,14.3,7.2,22.3l-21.2,41.9  c-4.2,8.1-14.3,11.4-22.3,7.2l-78.9-39.9C1291.5,494.3,1288.2,484.2,1292.4,476.1z"></path><rect x="1206.1" y="721.6" width="120.3" height="120.3"></rect><polygon points="1687.2,721.6 1687.2,841.9 1566.9,841.9 1566.9,721.7 1566.9,721.7 1566.9,601.4 1687.1,601.4 1687.1,721.6 "></polygon><rect x="1386.5" y="661.4" width="120.3" height="180.5"></rect><rect x="1747.3" y="541.1" width="120.3" height="300.8"></rect><polygon points="1927.7,481.1 1927.7,601.4 1927.7,841.9 2048,841.9 2048,601.4 2048,481.1 "></polygon></svg></g></g></svg>